<?xml version="1.0" encoding="utf-8" standalone="no"?>
<!DOCTYPE svg PUBLIC "-//W3C//DTD SVG 1.1//EN"
  "http://www.w3.org/Graphics/SVG/1.1/DTD/svg11.dtd">
<!-- Created with matplotlib (http://matplotlib.org/) -->
<svg height="720pt" version="1.1" viewBox="0 0 720 720" width="720pt" xmlns="http://www.w3.org/2000/svg" xmlns:xlink="http://www.w3.org/1999/xlink">
 <defs>
  <style type="text/css">
*{stroke-linecap:butt;stroke-linejoin:round;stroke-miterlimit:100000;}
  </style>
 </defs>
 <g id="figure_1">
  <g id="patch_1">
   <path d="M 0 720 
L 720 720 
L 720 0 
L 0 0 
z
" style="fill:#ffffff;"/>
  </g>
  <g id="axes_1">
   <g id="patch_2">
    <path d="M 454.414942 144.790088 
C 440.907704 139.195207 426.883367 134.940971 412.54416 132.088725 
C 398.204952 129.23648 383.620129 127.8 369 127.8 
L 369 351 
L 454.414942 144.790088 
z
" style="fill:#ce0120;"/>
   </g>
   <g id="patch_3">
    <path d="M 592.2 351 
C 592.2 306.860494 579.106613 263.697382 554.584017 226.996724 
C 530.061422 190.296066 495.194528 161.681546 454.414942 144.790088 
L 369 351 
L 592.2 351 
z
" style="fill:#ee3b23;"/>
   </g>
   <g id="patch_4">
    <path d="M 454.414942 557.209912 
C 495.194528 540.318454 530.061422 511.703934 554.584017 475.003276 
C 579.106613 438.302618 592.2 395.139506 592.2 351 
L 369 351 
L 454.414942 557.209912 
z
" style="fill:#f47e1f;"/>
   </g>
   <g id="patch_5">
    <path d="M 211.173766 508.826234 
C 242.38511 540.037577 282.164462 561.300084 325.45584 569.911275 
C 368.747218 578.522465 413.635356 574.101369 454.414942 557.209912 
L 369 351 
L 211.173766 508.826234 
z
" style="fill:#058743;"/>
   </g>
   <g id="patch_6">
    <path d="M 145.8 351 
C 145.8 380.310355 151.573501 409.335705 162.790088 436.414942 
C 174.006676 463.49418 190.448215 488.100682 211.173766 508.826234 
L 369 351 
L 145.8 351 
z
" style="fill:#314397;"/>
   </g>
   <g id="patch_7">
    <path d="M 283.585058 144.790088 
C 242.805472 161.681546 207.938578 190.296066 183.415983 226.996724 
C 158.893387 263.697382 145.8 306.860494 145.8 351 
L 369 351 
L 283.585058 144.790088 
z
" style="fill:#0d136b;"/>
   </g>
   <g id="patch_8">
    <path d="M 369 127.8 
C 354.379871 127.8 339.795048 129.23648 325.45584 132.088725 
C 311.116633 134.940971 297.092296 139.195207 283.585058 144.790088 
L 369 351 
L 369 127.8 
z
" style="fill:#68067c;"/>
   </g>
   <g id="matplotlib.axis_1"/>
   <g id="matplotlib.axis_2"/>
   <g id="text_1">
    <!-- M -->
    <defs>
     <path d="M 9.8125 72.90625 
L 24.515625 72.90625 
L 43.109375 23.296875 
L 61.8125 72.90625 
L 76.515625 72.90625 
L 76.515625 0 
L 66.890625 0 
L 66.890625 64.015625 
L 48.09375 14.015625 
L 38.1875 14.015625 
L 19.390625 64.015625 
L 19.390625 0 
L 9.8125 0 
z
" id="BitstreamVeraSans-Roman-4d"/>
    </defs>
    <g transform="translate(403.835327899 178.630355331)scale(0.1 -0.1)">
     <use xlink:href="#BitstreamVeraSans-Roman-4d"/>
    </g>
   </g>
   <g id="text_2">
    <!-- 6.2% -->
    <defs>
     <path d="M 19.1875 8.296875 
L 53.609375 8.296875 
L 53.609375 0 
L 7.328125 0 
L 7.328125 8.296875 
Q 12.9375 14.109375 22.625 23.890625 
Q 32.328125 33.6875 34.8125 36.53125 
Q 39.546875 41.84375 41.421875 45.53125 
Q 43.3125 49.21875 43.3125 52.78125 
Q 43.3125 58.59375 39.234375 62.25 
Q 35.15625 65.921875 28.609375 65.921875 
Q 23.96875 65.921875 18.8125 64.3125 
Q 13.671875 62.703125 7.8125 59.421875 
L 7.8125 69.390625 
Q 13.765625 71.78125 18.9375 73 
Q 24.125 74.21875 28.421875 74.21875 
Q 39.75 74.21875 46.484375 68.546875 
Q 53.21875 62.890625 53.21875 53.421875 
Q 53.21875 48.921875 51.53125 44.890625 
Q 49.859375 40.875 45.40625 35.40625 
Q 44.1875 33.984375 37.640625 27.21875 
Q 31.109375 20.453125 19.1875 8.296875 
" id="BitstreamVeraSans-Roman-32"/>
     <path d="M 10.6875 12.40625 
L 21 12.40625 
L 21 0 
L 10.6875 0 
z
" id="BitstreamVeraSans-Roman-2e"/>
     <path d="M 72.703125 32.078125 
Q 68.453125 32.078125 66.03125 28.46875 
Q 63.625 24.859375 63.625 18.40625 
Q 63.625 12.0625 66.03125 8.421875 
Q 68.453125 4.78125 72.703125 4.78125 
Q 76.859375 4.78125 79.265625 8.421875 
Q 81.6875 12.0625 81.6875 18.40625 
Q 81.6875 24.8125 79.265625 28.4375 
Q 76.859375 32.078125 72.703125 32.078125 
M 72.703125 38.28125 
Q 80.421875 38.28125 84.953125 32.90625 
Q 89.5 27.546875 89.5 18.40625 
Q 89.5 9.28125 84.9375 3.921875 
Q 80.375 -1.421875 72.703125 -1.421875 
Q 64.890625 -1.421875 60.34375 3.921875 
Q 55.8125 9.28125 55.8125 18.40625 
Q 55.8125 27.59375 60.375 32.9375 
Q 64.9375 38.28125 72.703125 38.28125 
M 22.3125 68.015625 
Q 18.109375 68.015625 15.6875 64.375 
Q 13.28125 60.75 13.28125 54.390625 
Q 13.28125 47.953125 15.671875 44.328125 
Q 18.0625 40.71875 22.3125 40.71875 
Q 26.5625 40.71875 28.96875 44.328125 
Q 31.390625 47.953125 31.390625 54.390625 
Q 31.390625 60.6875 28.953125 64.34375 
Q 26.515625 68.015625 22.3125 68.015625 
M 66.40625 74.21875 
L 74.21875 74.21875 
L 28.609375 -1.421875 
L 20.796875 -1.421875 
z
M 22.3125 74.21875 
Q 30.03125 74.21875 34.609375 68.875 
Q 39.203125 63.53125 39.203125 54.390625 
Q 39.203125 45.171875 34.640625 39.84375 
Q 30.078125 34.515625 22.3125 34.515625 
Q 14.546875 34.515625 10.03125 39.859375 
Q 5.515625 45.21875 5.515625 54.390625 
Q 5.515625 63.484375 10.046875 68.84375 
Q 14.59375 74.21875 22.3125 74.21875 
" id="BitstreamVeraSans-Roman-25"/>
     <path d="M 33.015625 40.375 
Q 26.375 40.375 22.484375 35.828125 
Q 18.609375 31.296875 18.609375 23.390625 
Q 18.609375 15.53125 22.484375 10.953125 
Q 26.375 6.390625 33.015625 6.390625 
Q 39.65625 6.390625 43.53125 10.953125 
Q 47.40625 15.53125 47.40625 23.390625 
Q 47.40625 31.296875 43.53125 35.828125 
Q 39.65625 40.375 33.015625 40.375 
M 52.59375 71.296875 
L 52.59375 62.3125 
Q 48.875 64.0625 45.09375 64.984375 
Q 41.3125 65.921875 37.59375 65.921875 
Q 27.828125 65.921875 22.671875 59.328125 
Q 17.53125 52.734375 16.796875 39.40625 
Q 19.671875 43.65625 24.015625 45.921875 
Q 28.375 48.1875 33.59375 48.1875 
Q 44.578125 48.1875 50.953125 41.515625 
Q 57.328125 34.859375 57.328125 23.390625 
Q 57.328125 12.15625 50.6875 5.359375 
Q 44.046875 -1.421875 33.015625 -1.421875 
Q 20.359375 -1.421875 13.671875 8.265625 
Q 6.984375 17.96875 6.984375 36.375 
Q 6.984375 53.65625 15.1875 63.9375 
Q 23.390625 74.21875 37.203125 74.21875 
Q 40.921875 74.21875 44.703125 73.484375 
Q 48.484375 72.75 52.59375 71.296875 
" id="BitstreamVeraSans-Roman-36"/>
    </defs>
    <g transform="translate(404.196232111 112.956972955)scale(0.1 -0.1)">
     <use xlink:href="#BitstreamVeraSans-Roman-36"/>
     <use x="63.623046875" xlink:href="#BitstreamVeraSans-Roman-2e"/>
     <use x="95.41015625" xlink:href="#BitstreamVeraSans-Roman-32"/>
     <use x="159.033203125" xlink:href="#BitstreamVeraSans-Roman-25"/>
    </g>
   </g>
   <g id="text_3">
    <!-- O -->
    <defs>
     <path d="M 39.40625 66.21875 
Q 28.65625 66.21875 22.328125 58.203125 
Q 16.015625 50.203125 16.015625 36.375 
Q 16.015625 22.609375 22.328125 14.59375 
Q 28.65625 6.59375 39.40625 6.59375 
Q 50.140625 6.59375 56.421875 14.59375 
Q 62.703125 22.609375 62.703125 36.375 
Q 62.703125 50.203125 56.421875 58.203125 
Q 50.140625 66.21875 39.40625 66.21875 
M 39.40625 74.21875 
Q 54.734375 74.21875 63.90625 63.9375 
Q 73.09375 53.65625 73.09375 36.375 
Q 73.09375 19.140625 63.90625 8.859375 
Q 54.734375 -1.421875 39.40625 -1.421875 
Q 24.03125 -1.421875 14.8125 8.828125 
Q 5.609375 19.09375 5.609375 36.375 
Q 5.609375 53.65625 14.8125 63.9375 
Q 24.03125 74.21875 39.40625 74.21875 
" id="BitstreamVeraSans-Roman-4f"/>
    </defs>
    <g transform="translate(517.467213973 254.556754192)scale(0.1 -0.1)">
     <use xlink:href="#BitstreamVeraSans-Roman-4f"/>
    </g>
   </g>
   <g id="text_4">
    <!-- 18.8% -->
    <defs>
     <path d="M 31.78125 34.625 
Q 24.75 34.625 20.71875 30.859375 
Q 16.703125 27.09375 16.703125 20.515625 
Q 16.703125 13.921875 20.71875 10.15625 
Q 24.75 6.390625 31.78125 6.390625 
Q 38.8125 6.390625 42.859375 10.171875 
Q 46.921875 13.96875 46.921875 20.515625 
Q 46.921875 27.09375 42.890625 30.859375 
Q 38.875 34.625 31.78125 34.625 
M 21.921875 38.8125 
Q 15.578125 40.375 12.03125 44.71875 
Q 8.5 49.078125 8.5 55.328125 
Q 8.5 64.0625 14.71875 69.140625 
Q 20.953125 74.21875 31.78125 74.21875 
Q 42.671875 74.21875 48.875 69.140625 
Q 55.078125 64.0625 55.078125 55.328125 
Q 55.078125 49.078125 51.53125 44.71875 
Q 48 40.375 41.703125 38.8125 
Q 48.828125 37.15625 52.796875 32.3125 
Q 56.78125 27.484375 56.78125 20.515625 
Q 56.78125 9.90625 50.3125 4.234375 
Q 43.84375 -1.421875 31.78125 -1.421875 
Q 19.734375 -1.421875 13.25 4.234375 
Q 6.78125 9.90625 6.78125 20.515625 
Q 6.78125 27.484375 10.78125 32.3125 
Q 14.796875 37.15625 21.921875 38.8125 
M 18.3125 54.390625 
Q 18.3125 48.734375 21.84375 45.5625 
Q 25.390625 42.390625 31.78125 42.390625 
Q 38.140625 42.390625 41.71875 45.5625 
Q 45.3125 48.734375 45.3125 54.390625 
Q 45.3125 60.0625 41.71875 63.234375 
Q 38.140625 66.40625 31.78125 66.40625 
Q 25.390625 66.40625 21.84375 63.234375 
Q 18.3125 60.0625 18.3125 54.390625 
" id="BitstreamVeraSans-Roman-38"/>
     <path d="M 12.40625 8.296875 
L 28.515625 8.296875 
L 28.515625 63.921875 
L 10.984375 60.40625 
L 10.984375 69.390625 
L 28.421875 72.90625 
L 38.28125 72.90625 
L 38.28125 8.296875 
L 54.390625 8.296875 
L 54.390625 0 
L 12.40625 0 
z
" id="BitstreamVeraSans-Roman-31"/>
    </defs>
    <g transform="translate(557.258825463 217.355771389)scale(0.1 -0.1)">
     <use xlink:href="#BitstreamVeraSans-Roman-31"/>
     <use x="63.623046875" xlink:href="#BitstreamVeraSans-Roman-38"/>
     <use x="127.24609375" xlink:href="#BitstreamVeraSans-Roman-2e"/>
     <use x="159.033203125" xlink:href="#BitstreamVeraSans-Roman-38"/>
     <use x="222.65625" xlink:href="#BitstreamVeraSans-Roman-25"/>
    </g>
   </g>
   <g id="text_5">
    <!-- T -->
    <defs>
     <path d="M -0.296875 72.90625 
L 61.375 72.90625 
L 61.375 64.59375 
L 35.5 64.59375 
L 35.5 0 
L 25.59375 0 
L 25.59375 64.59375 
L -0.296875 64.59375 
z
" id="BitstreamVeraSans-Roman-54"/>
    </defs>
    <g transform="translate(517.467213973 452.961995808)scale(0.1 -0.1)">
     <use xlink:href="#BitstreamVeraSans-Roman-54"/>
    </g>
   </g>
   <g id="text_6">
    <!-- 18.8% -->
    <g transform="translate(557.258825463 490.162978611)scale(0.1 -0.1)">
     <use xlink:href="#BitstreamVeraSans-Roman-31"/>
     <use x="63.623046875" xlink:href="#BitstreamVeraSans-Roman-38"/>
     <use x="127.24609375" xlink:href="#BitstreamVeraSans-Roman-2e"/>
     <use x="159.033203125" xlink:href="#BitstreamVeraSans-Roman-38"/>
     <use x="222.65625" xlink:href="#BitstreamVeraSans-Roman-25"/>
    </g>
   </g>
   <g id="text_7">
    <!-- K -->
    <defs>
     <path d="M 9.8125 72.90625 
L 19.671875 72.90625 
L 19.671875 42.09375 
L 52.390625 72.90625 
L 65.09375 72.90625 
L 28.90625 38.921875 
L 67.671875 0 
L 54.6875 0 
L 19.671875 35.109375 
L 19.671875 0 
L 9.8125 0 
z
" id="BitstreamVeraSans-Roman-4b"/>
    </defs>
    <g transform="translate(327.606859601 528.888394669)scale(0.1 -0.1)">
     <use xlink:href="#BitstreamVeraSans-Roman-4b"/>
    </g>
   </g>
   <g id="text_8">
    <!-- 18.8% -->
    <g transform="translate(305.217830389 594.561777045)scale(0.1 -0.1)">
     <use xlink:href="#BitstreamVeraSans-Roman-31"/>
     <use x="63.623046875" xlink:href="#BitstreamVeraSans-Roman-38"/>
     <use x="127.24609375" xlink:href="#BitstreamVeraSans-Roman-2e"/>
     <use x="159.033203125" xlink:href="#BitstreamVeraSans-Roman-38"/>
     <use x="222.65625" xlink:href="#BitstreamVeraSans-Roman-25"/>
    </g>
   </g>
   <g id="text_9">
    <!-- F -->
    <defs>
     <path d="M 9.8125 72.90625 
L 51.703125 72.90625 
L 51.703125 64.59375 
L 19.671875 64.59375 
L 19.671875 43.109375 
L 48.578125 43.109375 
L 48.578125 34.8125 
L 19.671875 34.8125 
L 19.671875 0 
L 9.8125 0 
z
" id="BitstreamVeraSans-Roman-46"/>
    </defs>
    <g transform="translate(198.280508175 422.091328683)scale(0.1 -0.1)">
     <use xlink:href="#BitstreamVeraSans-Roman-46"/>
    </g>
   </g>
   <g id="text_10">
    <!-- 12.5% -->
    <defs>
     <path d="M 10.796875 72.90625 
L 49.515625 72.90625 
L 49.515625 64.59375 
L 19.828125 64.59375 
L 19.828125 46.734375 
Q 21.96875 47.46875 24.109375 47.828125 
Q 26.265625 48.1875 28.421875 48.1875 
Q 40.625 48.1875 47.75 41.5 
Q 54.890625 34.8125 54.890625 23.390625 
Q 54.890625 11.625 47.5625 5.09375 
Q 40.234375 -1.421875 26.90625 -1.421875 
Q 22.3125 -1.421875 17.546875 -0.640625 
Q 12.796875 0.140625 7.71875 1.703125 
L 7.71875 11.625 
Q 12.109375 9.234375 16.796875 8.0625 
Q 21.484375 6.890625 26.703125 6.890625 
Q 35.15625 6.890625 40.078125 11.328125 
Q 45.015625 15.765625 45.015625 23.390625 
Q 45.015625 31 40.078125 35.4375 
Q 35.15625 39.890625 26.703125 39.890625 
Q 22.75 39.890625 18.8125 39.015625 
Q 14.890625 38.140625 10.796875 36.28125 
z
" id="BitstreamVeraSans-Roman-35"/>
    </defs>
    <g transform="translate(126.285503428 447.715811314)scale(0.1 -0.1)">
     <use xlink:href="#BitstreamVeraSans-Roman-31"/>
     <use x="63.623046875" xlink:href="#BitstreamVeraSans-Roman-32"/>
     <use x="127.24609375" xlink:href="#BitstreamVeraSans-Roman-2e"/>
     <use x="159.033203125" xlink:href="#BitstreamVeraSans-Roman-35"/>
     <use x="222.65625" xlink:href="#BitstreamVeraSans-Roman-25"/>
    </g>
   </g>
   <g id="text_11">
    <!-- G -->
    <defs>
     <path d="M 59.515625 10.40625 
L 59.515625 29.984375 
L 43.40625 29.984375 
L 43.40625 38.09375 
L 69.28125 38.09375 
L 69.28125 6.78125 
Q 63.578125 2.734375 56.6875 0.65625 
Q 49.8125 -1.421875 42 -1.421875 
Q 24.90625 -1.421875 15.25 8.5625 
Q 5.609375 18.5625 5.609375 36.375 
Q 5.609375 54.25 15.25 64.234375 
Q 24.90625 74.21875 42 74.21875 
Q 49.125 74.21875 55.546875 72.453125 
Q 61.96875 70.703125 67.390625 67.28125 
L 67.390625 56.78125 
Q 61.921875 61.421875 55.765625 63.765625 
Q 49.609375 66.109375 42.828125 66.109375 
Q 29.4375 66.109375 22.71875 58.640625 
Q 16.015625 51.171875 16.015625 36.375 
Q 16.015625 21.625 22.71875 14.15625 
Q 29.4375 6.6875 42.828125 6.6875 
Q 48.046875 6.6875 52.140625 7.59375 
Q 56.25 8.5 59.515625 10.40625 
" id="BitstreamVeraSans-Roman-47"/>
    </defs>
    <g transform="translate(212.784348527 254.556754192)scale(0.1 -0.1)">
     <use xlink:href="#BitstreamVeraSans-Roman-47"/>
    </g>
   </g>
   <g id="text_12">
    <!-- 18.8% -->
    <g transform="translate(148.973987037 217.355771389)scale(0.1 -0.1)">
     <use xlink:href="#BitstreamVeraSans-Roman-31"/>
     <use x="63.623046875" xlink:href="#BitstreamVeraSans-Roman-38"/>
     <use x="127.24609375" xlink:href="#BitstreamVeraSans-Roman-2e"/>
     <use x="159.033203125" xlink:href="#BitstreamVeraSans-Roman-38"/>
     <use x="222.65625" xlink:href="#BitstreamVeraSans-Roman-25"/>
    </g>
   </g>
   <g id="text_13">
    <!-- P -->
    <defs>
     <path d="M 19.671875 64.796875 
L 19.671875 37.40625 
L 32.078125 37.40625 
Q 38.96875 37.40625 42.71875 40.96875 
Q 46.484375 44.53125 46.484375 51.125 
Q 46.484375 57.671875 42.71875 61.234375 
Q 38.96875 64.796875 32.078125 64.796875 
z
M 9.8125 72.90625 
L 32.078125 72.90625 
Q 44.34375 72.90625 50.609375 67.359375 
Q 56.890625 61.8125 56.890625 51.125 
Q 56.890625 40.328125 50.609375 34.8125 
Q 44.34375 29.296875 32.078125 29.296875 
L 19.671875 29.296875 
L 19.671875 0 
L 9.8125 0 
z
" id="BitstreamVeraSans-Roman-50"/>
    </defs>
    <g transform="translate(328.134984601 178.630355331)scale(0.1 -0.1)">
     <use xlink:href="#BitstreamVeraSans-Roman-50"/>
    </g>
   </g>
   <g id="text_14">
    <!-- 6.2% -->
    <g transform="translate(308.399080389 112.956972955)scale(0.1 -0.1)">
     <use xlink:href="#BitstreamVeraSans-Roman-36"/>
     <use x="63.623046875" xlink:href="#BitstreamVeraSans-Roman-2e"/>
     <use x="95.41015625" xlink:href="#BitstreamVeraSans-Roman-32"/>
     <use x="159.033203125" xlink:href="#BitstreamVeraSans-Roman-25"/>
    </g>
   </g>
  </g>
 </g>
</svg>
