<?xml version="1.0" encoding="utf-8" standalone="no"?>
<!DOCTYPE svg PUBLIC "-//W3C//DTD SVG 1.1//EN"
  "http://www.w3.org/Graphics/SVG/1.1/DTD/svg11.dtd">
<!-- Created with matplotlib (http://matplotlib.org/) -->
<svg height="720pt" version="1.1" viewBox="0 0 720 720" width="720pt" xmlns="http://www.w3.org/2000/svg" xmlns:xlink="http://www.w3.org/1999/xlink">
 <defs>
  <style type="text/css">
*{stroke-linecap:butt;stroke-linejoin:round;stroke-miterlimit:100000;}
  </style>
 </defs>
 <g id="figure_1">
  <g id="patch_1">
   <path d="M 0 720 
L 720 720 
L 720 0 
L 0 0 
z
" style="fill:#ffffff;"/>
  </g>
  <g id="axes_1">
   <g id="patch_2">
    <path d="M 520.814548 514.617185 
C 553.692118 484.11126 576.623785 444.392452 586.603908 400.66668 
C 596.584032 356.940908 593.156662 311.20582 576.771023 269.455888 
C 560.385383 227.705956 531.790064 191.84856 494.733039 166.583507 
C 457.676014 141.318454 413.850262 127.8 369 127.8 
L 369 351 
L 520.814548 514.617185 
z
" style="fill:#ce0120;"/>
   </g>
   <g id="patch_3">
    <path d="M 335.733747 571.707038 
C 368.889369 576.704446 402.748864 574.167031 434.789341 564.283855 
C 466.829818 554.400678 496.235225 537.423461 520.814548 514.617185 
L 369 351 
L 335.733747 571.707038 
z
" style="fill:#ee3b23;"/>
   </g>
   <g id="patch_4">
    <path d="M 243.266944 535.416481 
C 257.07572 544.831148 271.898342 552.665134 287.455864 558.771013 
C 303.013385 564.876892 319.207599 569.21612 335.733747 571.707038 
L 369 351 
L 243.266944 535.416481 
z
" style="fill:#f47e1f;"/>
   </g>
   <g id="patch_5">
    <path d="M 217.185427 514.617161 
C 221.265415 518.402837 225.485575 522.03458 229.837058 525.504772 
C 234.18854 528.974964 238.668301 532.281179 243.266944 535.416481 
L 369 351 
L 217.185427 514.617161 
z
" style="fill:#fbb116;"/>
   </g>
   <g id="patch_6">
    <path d="M 175.703117 462.599978 
C 181.270817 472.243519 187.55239 481.456897 194.495198 490.162905 
C 201.438006 498.868912 209.022602 507.043164 217.185427 514.617161 
L 369 351 
L 175.703117 462.599978 
z
" style="fill:#4baa47;"/>
   </g>
   <g id="patch_7">
    <path d="M 146.424115 334.320215 
C 144.757492 356.559717 146.433456 378.923938 151.396084 400.666647 
C 156.358713 422.409355 164.552188 443.285998 175.703117 462.599978 
L 369 351 
L 146.424115 334.320215 
z
" style="fill:#058743;"/>
   </g>
   <g id="patch_8">
    <path d="M 151.396096 301.3333 
C 150.157598 306.75951 149.122497 312.230148 148.292964 317.733738 
C 147.46343 323.237329 146.840045 328.770023 146.424115 334.320215 
L 369 351 
L 151.396096 301.3333 
z
" style="fill:#0033a1;"/>
   </g>
   <g id="patch_9">
    <path d="M 161.22899 269.455856 
C 159.19559 274.636872 157.356694 279.892133 155.716158 285.210618 
C 154.075622 290.529102 152.634594 295.907089 151.396096 301.3333 
L 369 351 
L 161.22899 269.455856 
z
" style="fill:#225aa7;"/>
   </g>
   <g id="patch_10">
    <path d="M 194.495232 211.837053 
C 187.552422 220.543059 181.270847 229.756435 175.703145 239.399974 
C 170.135443 249.043514 165.29721 259.090204 161.22899 269.455856 
L 369 351 
L 194.495232 211.837053 
z
" style="fill:#314397;"/>
   </g>
   <g id="patch_11">
    <path d="M 272.157181 149.903734 
C 257.099452 157.155151 242.903709 166.074924 229.837102 176.495193 
C 216.770494 186.915462 204.915505 198.770448 194.495232 211.837053 
L 369 351 
L 272.157181 149.903734 
z
" style="fill:#0d136b;"/>
   </g>
   <g id="patch_12">
    <path d="M 303.210679 137.716139 
C 297.892194 139.356674 292.636932 141.195568 287.455916 143.228967 
C 282.2749 145.262365 277.171754 147.488844 272.157181 149.903734 
L 369 351 
L 303.210679 137.716139 
z
" style="fill:#c3a0d9;"/>
   </g>
   <g id="patch_13">
    <path d="M 335.733802 130.292954 
C 330.230211 131.122486 324.759573 132.157586 319.333362 133.396082 
C 313.907152 134.634578 308.529164 136.075605 303.210679 137.716139 
L 369 351 
L 335.733802 130.292954 
z
" style="fill:#3d0f7b;"/>
   </g>
   <g id="patch_14">
    <path d="M 369.000037 127.8 
C 363.434281 127.799999 357.870472 128.008181 352.320279 128.42411 
C 346.770086 128.840038 341.237393 129.463422 335.733802 130.292954 
L 369 351 
L 369.000037 127.8 
z
" style="fill:#68067c;"/>
   </g>
   <g id="matplotlib.axis_1"/>
   <g id="matplotlib.axis_2"/>
   <g id="text_1">
    <!-- M -->
    <defs>
     <path d="M 9.8125 72.90625 
L 24.515625 72.90625 
L 43.109375 23.296875 
L 61.8125 72.90625 
L 76.515625 72.90625 
L 76.515625 0 
L 66.890625 0 
L 66.890625 64.015625 
L 48.09375 14.015625 
L 38.1875 14.015625 
L 19.390625 64.015625 
L 19.390625 0 
L 9.8125 0 
z
" id="BitstreamVeraSans-Roman-4d"/>
    </defs>
    <g transform="translate(535.216818012 288.524085394)scale(0.1 -0.1)">
     <use xlink:href="#BitstreamVeraSans-Roman-4d"/>
    </g>
   </g>
   <g id="text_2">
    <!-- 38.1% -->
    <defs>
     <path d="M 40.578125 39.3125 
Q 47.65625 37.796875 51.625 33 
Q 55.609375 28.21875 55.609375 21.1875 
Q 55.609375 10.40625 48.1875 4.484375 
Q 40.765625 -1.421875 27.09375 -1.421875 
Q 22.515625 -1.421875 17.65625 -0.515625 
Q 12.796875 0.390625 7.625 2.203125 
L 7.625 11.71875 
Q 11.71875 9.328125 16.59375 8.109375 
Q 21.484375 6.890625 26.8125 6.890625 
Q 36.078125 6.890625 40.9375 10.546875 
Q 45.796875 14.203125 45.796875 21.1875 
Q 45.796875 27.640625 41.28125 31.265625 
Q 36.765625 34.90625 28.71875 34.90625 
L 20.21875 34.90625 
L 20.21875 43.015625 
L 29.109375 43.015625 
Q 36.375 43.015625 40.234375 45.921875 
Q 44.09375 48.828125 44.09375 54.296875 
Q 44.09375 59.90625 40.109375 62.90625 
Q 36.140625 65.921875 28.71875 65.921875 
Q 24.65625 65.921875 20.015625 65.03125 
Q 15.375 64.15625 9.8125 62.3125 
L 9.8125 71.09375 
Q 15.4375 72.65625 20.34375 73.4375 
Q 25.25 74.21875 29.59375 74.21875 
Q 40.828125 74.21875 47.359375 69.109375 
Q 53.90625 64.015625 53.90625 55.328125 
Q 53.90625 49.265625 50.4375 45.09375 
Q 46.96875 40.921875 40.578125 39.3125 
" id="BitstreamVeraSans-Roman-33"/>
     <path d="M 31.78125 34.625 
Q 24.75 34.625 20.71875 30.859375 
Q 16.703125 27.09375 16.703125 20.515625 
Q 16.703125 13.921875 20.71875 10.15625 
Q 24.75 6.390625 31.78125 6.390625 
Q 38.8125 6.390625 42.859375 10.171875 
Q 46.921875 13.96875 46.921875 20.515625 
Q 46.921875 27.09375 42.890625 30.859375 
Q 38.875 34.625 31.78125 34.625 
M 21.921875 38.8125 
Q 15.578125 40.375 12.03125 44.71875 
Q 8.5 49.078125 8.5 55.328125 
Q 8.5 64.0625 14.71875 69.140625 
Q 20.953125 74.21875 31.78125 74.21875 
Q 42.671875 74.21875 48.875 69.140625 
Q 55.078125 64.0625 55.078125 55.328125 
Q 55.078125 49.078125 51.53125 44.71875 
Q 48 40.375 41.703125 38.8125 
Q 48.828125 37.15625 52.796875 32.3125 
Q 56.78125 27.484375 56.78125 20.515625 
Q 56.78125 9.90625 50.3125 4.234375 
Q 43.84375 -1.421875 31.78125 -1.421875 
Q 19.734375 -1.421875 13.25 4.234375 
Q 6.78125 9.90625 6.78125 20.515625 
Q 6.78125 27.484375 10.78125 32.3125 
Q 14.796875 37.15625 21.921875 38.8125 
M 18.3125 54.390625 
Q 18.3125 48.734375 21.84375 45.5625 
Q 25.390625 42.390625 31.78125 42.390625 
Q 38.140625 42.390625 41.71875 45.5625 
Q 45.3125 48.734375 45.3125 54.390625 
Q 45.3125 60.0625 41.71875 63.234375 
Q 38.140625 66.40625 31.78125 66.40625 
Q 25.390625 66.40625 21.84375 63.234375 
Q 18.3125 60.0625 18.3125 54.390625 
" id="BitstreamVeraSans-Roman-38"/>
     <path d="M 12.40625 8.296875 
L 28.515625 8.296875 
L 28.515625 63.921875 
L 10.984375 60.40625 
L 10.984375 69.390625 
L 28.421875 72.90625 
L 38.28125 72.90625 
L 38.28125 8.296875 
L 54.390625 8.296875 
L 54.390625 0 
L 12.40625 0 
z
" id="BitstreamVeraSans-Roman-31"/>
     <path d="M 10.6875 12.40625 
L 21 12.40625 
L 21 0 
L 10.6875 0 
z
" id="BitstreamVeraSans-Roman-2e"/>
     <path d="M 72.703125 32.078125 
Q 68.453125 32.078125 66.03125 28.46875 
Q 63.625 24.859375 63.625 18.40625 
Q 63.625 12.0625 66.03125 8.421875 
Q 68.453125 4.78125 72.703125 4.78125 
Q 76.859375 4.78125 79.265625 8.421875 
Q 81.6875 12.0625 81.6875 18.40625 
Q 81.6875 24.8125 79.265625 28.4375 
Q 76.859375 32.078125 72.703125 32.078125 
M 72.703125 38.28125 
Q 80.421875 38.28125 84.953125 32.90625 
Q 89.5 27.546875 89.5 18.40625 
Q 89.5 9.28125 84.9375 3.921875 
Q 80.375 -1.421875 72.703125 -1.421875 
Q 64.890625 -1.421875 60.34375 3.921875 
Q 55.8125 9.28125 55.8125 18.40625 
Q 55.8125 27.59375 60.375 32.9375 
Q 64.9375 38.28125 72.703125 38.28125 
M 22.3125 68.015625 
Q 18.109375 68.015625 15.6875 64.375 
Q 13.28125 60.75 13.28125 54.390625 
Q 13.28125 47.953125 15.671875 44.328125 
Q 18.0625 40.71875 22.3125 40.71875 
Q 26.5625 40.71875 28.96875 44.328125 
Q 31.390625 47.953125 31.390625 54.390625 
Q 31.390625 60.6875 28.953125 64.34375 
Q 26.515625 68.015625 22.3125 68.015625 
M 66.40625 74.21875 
L 74.21875 74.21875 
L 28.609375 -1.421875 
L 20.796875 -1.421875 
z
M 22.3125 74.21875 
Q 30.03125 74.21875 34.609375 68.875 
Q 39.203125 63.53125 39.203125 54.390625 
Q 39.203125 45.171875 34.640625 39.84375 
Q 30.078125 34.515625 22.3125 34.515625 
Q 14.546875 34.515625 10.03125 39.859375 
Q 5.515625 45.21875 5.515625 54.390625 
Q 5.515625 63.484375 10.046875 68.84375 
Q 14.59375 74.21875 22.3125 74.21875 
" id="BitstreamVeraSans-Roman-25"/>
    </defs>
    <g transform="translate(581.664531017 264.060851792)scale(0.1 -0.1)">
     <use xlink:href="#BitstreamVeraSans-Roman-33"/>
     <use x="63.623046875" xlink:href="#BitstreamVeraSans-Roman-38"/>
     <use x="127.24609375" xlink:href="#BitstreamVeraSans-Roman-2e"/>
     <use x="159.033203125" xlink:href="#BitstreamVeraSans-Roman-31"/>
     <use x="222.65625" xlink:href="#BitstreamVeraSans-Roman-25"/>
    </g>
   </g>
   <g id="text_3">
    <!-- O -->
    <defs>
     <path d="M 39.40625 66.21875 
Q 28.65625 66.21875 22.328125 58.203125 
Q 16.015625 50.203125 16.015625 36.375 
Q 16.015625 22.609375 22.328125 14.59375 
Q 28.65625 6.59375 39.40625 6.59375 
Q 50.140625 6.59375 56.421875 14.59375 
Q 62.703125 22.609375 62.703125 36.375 
Q 62.703125 50.203125 56.421875 58.203125 
Q 50.140625 66.21875 39.40625 66.21875 
M 39.40625 74.21875 
Q 54.734375 74.21875 63.90625 63.9375 
Q 73.09375 53.65625 73.09375 36.375 
Q 73.09375 19.140625 63.90625 8.859375 
Q 54.734375 -1.421875 39.40625 -1.421875 
Q 24.03125 -1.421875 14.8125 8.828125 
Q 5.609375 19.09375 5.609375 36.375 
Q 5.609375 53.65625 14.8125 63.9375 
Q 24.03125 74.21875 39.40625 74.21875 
" id="BitstreamVeraSans-Roman-4f"/>
    </defs>
    <g transform="translate(421.631472912 524.386458604)scale(0.1 -0.1)">
     <use xlink:href="#BitstreamVeraSans-Roman-4f"/>
    </g>
   </g>
   <g id="text_4">
    <!-- 14.3% -->
    <defs>
     <path d="M 37.796875 64.3125 
L 12.890625 25.390625 
L 37.796875 25.390625 
z
M 35.203125 72.90625 
L 47.609375 72.90625 
L 47.609375 25.390625 
L 58.015625 25.390625 
L 58.015625 17.1875 
L 47.609375 17.1875 
L 47.609375 0 
L 37.796875 0 
L 37.796875 17.1875 
L 4.890625 17.1875 
L 4.890625 26.703125 
z
" id="BitstreamVeraSans-Roman-34"/>
    </defs>
    <g transform="translate(425.484681504 588.371614955)scale(0.1 -0.1)">
     <use xlink:href="#BitstreamVeraSans-Roman-31"/>
     <use x="63.623046875" xlink:href="#BitstreamVeraSans-Roman-34"/>
     <use x="127.24609375" xlink:href="#BitstreamVeraSans-Roman-2e"/>
     <use x="159.033203125" xlink:href="#BitstreamVeraSans-Roman-33"/>
     <use x="222.65625" xlink:href="#BitstreamVeraSans-Roman-25"/>
    </g>
   </g>
   <g id="text_5">
    <!-- T -->
    <defs>
     <path d="M -0.296875 72.90625 
L 61.375 72.90625 
L 61.375 64.59375 
L 35.5 64.59375 
L 35.5 0 
L 25.59375 0 
L 25.59375 64.59375 
L -0.296875 64.59375 
z
" id="BitstreamVeraSans-Roman-54"/>
    </defs>
    <g transform="translate(297.656878442 519.976185377)scale(0.1 -0.1)">
     <use xlink:href="#BitstreamVeraSans-Roman-54"/>
    </g>
   </g>
   <g id="text_6">
    <!-- 7.1% -->
    <defs>
     <path d="M 8.203125 72.90625 
L 55.078125 72.90625 
L 55.078125 68.703125 
L 28.609375 0 
L 18.3125 0 
L 43.21875 64.59375 
L 8.203125 64.59375 
z
" id="BitstreamVeraSans-Roman-37"/>
    </defs>
    <g transform="translate(266.599106295 582.307489269)scale(0.1 -0.1)">
     <use xlink:href="#BitstreamVeraSans-Roman-37"/>
     <use x="63.623046875" xlink:href="#BitstreamVeraSans-Roman-2e"/>
     <use x="95.41015625" xlink:href="#BitstreamVeraSans-Roman-31"/>
     <use x="159.033203125" xlink:href="#BitstreamVeraSans-Roman-25"/>
    </g>
   </g>
   <g id="text_7">
    <!-- V -->
    <defs>
     <path d="M 28.609375 0 
L 0.78125 72.90625 
L 11.078125 72.90625 
L 34.1875 11.53125 
L 57.328125 72.90625 
L 67.578125 72.90625 
L 39.796875 0 
z
" id="BitstreamVeraSans-Roman-56"/>
    </defs>
    <g transform="translate(250.829021159 493.36319269)scale(0.1 -0.1)">
     <use xlink:href="#BitstreamVeraSans-Roman-56"/>
    </g>
   </g>
   <g id="text_8">
    <!-- 2.4% -->
    <defs>
     <path d="M 19.1875 8.296875 
L 53.609375 8.296875 
L 53.609375 0 
L 7.328125 0 
L 7.328125 8.296875 
Q 12.9375 14.109375 22.625 23.890625 
Q 32.328125 33.6875 34.8125 36.53125 
Q 39.546875 41.84375 41.421875 45.53125 
Q 43.3125 49.21875 43.3125 52.78125 
Q 43.3125 58.59375 39.234375 62.25 
Q 35.15625 65.921875 28.609375 65.921875 
Q 23.96875 65.921875 18.8125 64.3125 
Q 13.671875 62.703125 7.8125 59.421875 
L 7.8125 69.390625 
Q 13.765625 71.78125 18.9375 73 
Q 24.125 74.21875 28.421875 74.21875 
Q 39.75 74.21875 46.484375 68.546875 
Q 53.21875 62.890625 53.21875 53.421875 
Q 53.21875 48.921875 51.53125 44.890625 
Q 49.859375 40.875 45.40625 35.40625 
Q 44.1875 33.984375 37.640625 27.21875 
Q 31.109375 20.453125 19.1875 8.296875 
" id="BitstreamVeraSans-Roman-32"/>
    </defs>
    <g transform="translate(203.218419719 545.714624324)scale(0.1 -0.1)">
     <use xlink:href="#BitstreamVeraSans-Roman-32"/>
     <use x="63.623046875" xlink:href="#BitstreamVeraSans-Roman-2e"/>
     <use x="95.41015625" xlink:href="#BitstreamVeraSans-Roman-34"/>
     <use x="159.033203125" xlink:href="#BitstreamVeraSans-Roman-25"/>
    </g>
   </g>
   <g id="text_9">
    <!-- J -->
    <defs>
     <path d="M 9.8125 72.90625 
L 19.671875 72.90625 
L 19.671875 5.078125 
Q 19.671875 -8.109375 14.671875 -14.0625 
Q 9.671875 -20.015625 -1.421875 -20.015625 
L -5.171875 -20.015625 
L -5.171875 -11.71875 
L -2.09375 -11.71875 
Q 4.4375 -11.71875 7.125 -8.046875 
Q 9.8125 -4.390625 9.8125 5.078125 
z
" id="BitstreamVeraSans-Roman-4a"/>
    </defs>
    <g transform="translate(226.446158206 465.089698615)scale(0.1 -0.1)">
     <use xlink:href="#BitstreamVeraSans-Roman-4a"/>
    </g>
   </g>
   <g id="text_10">
    <!-- 4.8% -->
    <g transform="translate(164.342373783 506.838569971)scale(0.1 -0.1)">
     <use xlink:href="#BitstreamVeraSans-Roman-34"/>
     <use x="63.623046875" xlink:href="#BitstreamVeraSans-Roman-2e"/>
     <use x="95.41015625" xlink:href="#BitstreamVeraSans-Roman-38"/>
     <use x="159.033203125" xlink:href="#BitstreamVeraSans-Roman-25"/>
    </g>
   </g>
   <g id="text_11">
    <!-- K -->
    <defs>
     <path d="M 9.8125 72.90625 
L 19.671875 72.90625 
L 19.671875 42.09375 
L 52.390625 72.90625 
L 65.09375 72.90625 
L 28.90625 38.921875 
L 67.671875 0 
L 54.6875 0 
L 19.671875 35.109375 
L 19.671875 0 
L 9.8125 0 
z
" id="BitstreamVeraSans-Roman-4b"/>
    </defs>
    <g transform="translate(188.359054784 393.492692303)scale(0.1 -0.1)">
     <use xlink:href="#BitstreamVeraSans-Roman-4b"/>
    </g>
   </g>
   <g id="text_12">
    <!-- 9.5% -->
    <defs>
     <path d="M 10.984375 1.515625 
L 10.984375 10.5 
Q 14.703125 8.734375 18.5 7.8125 
Q 22.3125 6.890625 25.984375 6.890625 
Q 35.75 6.890625 40.890625 13.453125 
Q 46.046875 20.015625 46.78125 33.40625 
Q 43.953125 29.203125 39.59375 26.953125 
Q 35.25 24.703125 29.984375 24.703125 
Q 19.046875 24.703125 12.671875 31.3125 
Q 6.296875 37.9375 6.296875 49.421875 
Q 6.296875 60.640625 12.9375 67.421875 
Q 19.578125 74.21875 30.609375 74.21875 
Q 43.265625 74.21875 49.921875 64.515625 
Q 56.59375 54.828125 56.59375 36.375 
Q 56.59375 19.140625 48.40625 8.859375 
Q 40.234375 -1.421875 26.421875 -1.421875 
Q 22.703125 -1.421875 18.890625 -0.6875 
Q 15.09375 0.046875 10.984375 1.515625 
M 30.609375 32.421875 
Q 37.25 32.421875 41.125 36.953125 
Q 45.015625 41.5 45.015625 49.421875 
Q 45.015625 57.28125 41.125 61.84375 
Q 37.25 66.40625 30.609375 66.40625 
Q 23.96875 66.40625 20.09375 61.84375 
Q 16.21875 57.28125 16.21875 49.421875 
Q 16.21875 41.5 20.09375 36.953125 
Q 23.96875 32.421875 30.609375 32.421875 
" id="BitstreamVeraSans-Roman-39"/>
     <path d="M 10.796875 72.90625 
L 49.515625 72.90625 
L 49.515625 64.59375 
L 19.828125 64.59375 
L 19.828125 46.734375 
Q 21.96875 47.46875 24.109375 47.828125 
Q 26.265625 48.1875 28.421875 48.1875 
Q 40.625 48.1875 47.75 41.5 
Q 54.890625 34.8125 54.890625 23.390625 
Q 54.890625 11.625 47.5625 5.09375 
Q 40.234375 -1.421875 26.90625 -1.421875 
Q 22.3125 -1.421875 17.546875 -0.640625 
Q 12.796875 0.140625 7.71875 1.703125 
L 7.71875 11.625 
Q 12.109375 9.234375 16.796875 8.0625 
Q 21.484375 6.890625 26.703125 6.890625 
Q 35.15625 6.890625 40.078125 11.328125 
Q 45.015625 15.765625 45.015625 23.390625 
Q 45.015625 31 40.078125 35.4375 
Q 35.15625 39.890625 26.703125 39.890625 
Q 22.75 39.890625 18.8125 39.015625 
Q 14.890625 38.140625 10.796875 36.28125 
z
" id="BitstreamVeraSans-Roman-35"/>
    </defs>
    <g transform="translate(116.933348766 408.392686291)scale(0.1 -0.1)">
     <use xlink:href="#BitstreamVeraSans-Roman-39"/>
     <use x="63.623046875" xlink:href="#BitstreamVeraSans-Roman-2e"/>
     <use x="95.41015625" xlink:href="#BitstreamVeraSans-Roman-35"/>
     <use x="159.033203125" xlink:href="#BitstreamVeraSans-Roman-25"/>
    </g>
   </g>
   <g id="text_13">
    <!-- C -->
    <defs>
     <path d="M 64.40625 67.28125 
L 64.40625 56.890625 
Q 59.421875 61.53125 53.78125 63.8125 
Q 48.140625 66.109375 41.796875 66.109375 
Q 29.296875 66.109375 22.65625 58.46875 
Q 16.015625 50.828125 16.015625 36.375 
Q 16.015625 21.96875 22.65625 14.328125 
Q 29.296875 6.6875 41.796875 6.6875 
Q 48.140625 6.6875 53.78125 8.984375 
Q 59.421875 11.28125 64.40625 15.921875 
L 64.40625 5.609375 
Q 59.234375 2.09375 53.4375 0.328125 
Q 47.65625 -1.421875 41.21875 -1.421875 
Q 24.65625 -1.421875 15.125 8.703125 
Q 5.609375 18.84375 5.609375 36.375 
Q 5.609375 53.953125 15.125 64.078125 
Q 24.65625 74.21875 41.21875 74.21875 
Q 47.75 74.21875 53.53125 72.484375 
Q 59.328125 70.75 64.40625 67.28125 
" id="BitstreamVeraSans-Roman-43"/>
    </defs>
    <g transform="translate(185.451558514 327.146365762)scale(0.1 -0.1)">
     <use xlink:href="#BitstreamVeraSans-Roman-43"/>
    </g>
   </g>
   <g id="text_14">
    <!-- 2.4% -->
    <g transform="translate(113.519916394 317.166487298)scale(0.1 -0.1)">
     <use xlink:href="#BitstreamVeraSans-Roman-32"/>
     <use x="63.623046875" xlink:href="#BitstreamVeraSans-Roman-2e"/>
     <use x="95.41015625" xlink:href="#BitstreamVeraSans-Roman-34"/>
     <use x="159.033203125" xlink:href="#BitstreamVeraSans-Roman-25"/>
    </g>
   </g>
   <g id="text_15">
    <!-- E -->
    <defs>
     <path d="M 9.8125 72.90625 
L 55.90625 72.90625 
L 55.90625 64.59375 
L 19.671875 64.59375 
L 19.671875 43.015625 
L 54.390625 43.015625 
L 54.390625 34.71875 
L 19.671875 34.71875 
L 19.671875 8.296875 
L 56.78125 8.296875 
L 56.78125 0 
L 9.8125 0 
z
" id="BitstreamVeraSans-Roman-45"/>
    </defs>
    <g transform="translate(192.05417656 301.127869139)scale(0.1 -0.1)">
     <use xlink:href="#BitstreamVeraSans-Roman-45"/>
    </g>
   </g>
   <g id="text_16">
    <!-- 2.4% -->
    <g transform="translate(121.68543027 281.391054441)scale(0.1 -0.1)">
     <use xlink:href="#BitstreamVeraSans-Roman-32"/>
     <use x="63.623046875" xlink:href="#BitstreamVeraSans-Roman-2e"/>
     <use x="95.41015625" xlink:href="#BitstreamVeraSans-Roman-34"/>
     <use x="159.033203125" xlink:href="#BitstreamVeraSans-Roman-25"/>
    </g>
   </g>
   <g id="text_17">
    <!-- F -->
    <defs>
     <path d="M 9.8125 72.90625 
L 51.703125 72.90625 
L 51.703125 64.59375 
L 19.671875 64.59375 
L 19.671875 43.109375 
L 48.578125 43.109375 
L 48.578125 34.8125 
L 19.671875 34.8125 
L 19.671875 0 
L 9.8125 0 
z
" id="BitstreamVeraSans-Roman-46"/>
    </defs>
    <g transform="translate(208.610953242 264.479354489)scale(0.1 -0.1)">
     <use xlink:href="#BitstreamVeraSans-Roman-46"/>
    </g>
   </g>
   <g id="text_18">
    <!-- 4.8% -->
    <g transform="translate(143.671115395 230.999346798)scale(0.1 -0.1)">
     <use xlink:href="#BitstreamVeraSans-Roman-34"/>
     <use x="63.623046875" xlink:href="#BitstreamVeraSans-Roman-2e"/>
     <use x="95.41015625" xlink:href="#BitstreamVeraSans-Roman-38"/>
     <use x="159.033203125" xlink:href="#BitstreamVeraSans-Roman-25"/>
    </g>
   </g>
   <g id="text_19">
    <!-- G -->
    <defs>
     <path d="M 59.515625 10.40625 
L 59.515625 29.984375 
L 43.40625 29.984375 
L 43.40625 38.09375 
L 69.28125 38.09375 
L 69.28125 6.78125 
Q 63.578125 2.734375 56.6875 0.65625 
Q 49.8125 -1.421875 42 -1.421875 
Q 24.90625 -1.421875 15.25 8.5625 
Q 5.609375 18.5625 5.609375 36.375 
Q 5.609375 54.25 15.25 64.234375 
Q 24.90625 74.21875 42 74.21875 
Q 49.125 74.21875 55.546875 72.453125 
Q 61.96875 70.703125 67.390625 67.28125 
L 67.390625 56.78125 
Q 61.921875 61.421875 55.765625 63.765625 
Q 49.609375 66.109375 42.828125 66.109375 
Q 29.4375 66.109375 22.71875 58.640625 
Q 16.015625 51.171875 16.015625 36.375 
Q 16.015625 21.625 22.71875 14.15625 
Q 29.4375 6.6875 42.828125 6.6875 
Q 48.046875 6.6875 52.140625 7.59375 
Q 56.25 8.5 59.515625 10.40625 
" id="BitstreamVeraSans-Roman-47"/>
    </defs>
    <g transform="translate(249.921243786 214.155529297)scale(0.1 -0.1)">
     <use xlink:href="#BitstreamVeraSans-Roman-47"/>
    </g>
   </g>
   <g id="text_20">
    <!-- 7.1% -->
    <g transform="translate(203.218468019 161.804087158)scale(0.1 -0.1)">
     <use xlink:href="#BitstreamVeraSans-Roman-37"/>
     <use x="63.623046875" xlink:href="#BitstreamVeraSans-Roman-2e"/>
     <use x="95.41015625" xlink:href="#BitstreamVeraSans-Roman-31"/>
     <use x="159.033203125" xlink:href="#BitstreamVeraSans-Roman-25"/>
    </g>
   </g>
   <g id="text_21">
    <!-- H -->
    <defs>
     <path d="M 9.8125 72.90625 
L 19.671875 72.90625 
L 19.671875 43.015625 
L 55.515625 43.015625 
L 55.515625 72.90625 
L 65.375 72.90625 
L 65.375 0 
L 55.515625 0 
L 55.515625 34.71875 
L 19.671875 34.71875 
L 19.671875 0 
L 9.8125 0 
z
" id="BitstreamVeraSans-Roman-48"/>
    </defs>
    <g transform="translate(296.244420265 187.542548208)scale(0.1 -0.1)">
     <use xlink:href="#BitstreamVeraSans-Roman-48"/>
    </g>
   </g>
   <g id="text_22">
    <!-- 2.4% -->
    <g transform="translate(266.599163802 125.211238161)scale(0.1 -0.1)">
     <use xlink:href="#BitstreamVeraSans-Roman-32"/>
     <use x="63.623046875" xlink:href="#BitstreamVeraSans-Roman-2e"/>
     <use x="95.41015625" xlink:href="#BitstreamVeraSans-Roman-34"/>
     <use x="159.033203125" xlink:href="#BitstreamVeraSans-Roman-25"/>
    </g>
   </g>
   <g id="text_23">
    <!-- I -->
    <defs>
     <path d="M 9.8125 72.90625 
L 19.671875 72.90625 
L 19.671875 0 
L 9.8125 0 
z
" id="BitstreamVeraSans-Roman-49"/>
    </defs>
    <g transform="translate(326.316689828 179.676240657)scale(0.1 -0.1)">
     <use xlink:href="#BitstreamVeraSans-Roman-49"/>
    </g>
   </g>
   <g id="text_24">
    <!-- 2.4% -->
    <g transform="translate(301.664354764 114.395065278)scale(0.1 -0.1)">
     <use xlink:href="#BitstreamVeraSans-Roman-32"/>
     <use x="63.623046875" xlink:href="#BitstreamVeraSans-Roman-2e"/>
     <use x="95.41015625" xlink:href="#BitstreamVeraSans-Roman-34"/>
     <use x="159.033203125" xlink:href="#BitstreamVeraSans-Roman-25"/>
    </g>
   </g>
   <g id="text_25">
    <!-- P -->
    <defs>
     <path d="M 19.671875 64.796875 
L 19.671875 37.40625 
L 32.078125 37.40625 
Q 38.96875 37.40625 42.71875 40.96875 
Q 46.484375 44.53125 46.484375 51.125 
Q 46.484375 57.671875 42.71875 61.234375 
Q 38.96875 64.796875 32.078125 64.796875 
z
M 9.8125 72.90625 
L 32.078125 72.90625 
Q 44.34375 72.90625 50.609375 67.359375 
Q 56.890625 61.8125 56.890625 51.125 
Q 56.890625 40.328125 50.609375 34.8125 
Q 44.34375 29.296875 32.078125 29.296875 
L 19.671875 29.296875 
L 19.671875 0 
L 9.8125 0 
z
" id="BitstreamVeraSans-Roman-50"/>
    </defs>
    <g transform="translate(349.626535916 175.698662808)scale(0.1 -0.1)">
     <use xlink:href="#BitstreamVeraSans-Roman-50"/>
    </g>
   </g>
   <g id="text_26">
    <!-- 2.4% -->
    <g transform="translate(337.949963447 108.925895735)scale(0.1 -0.1)">
     <use xlink:href="#BitstreamVeraSans-Roman-32"/>
     <use x="63.623046875" xlink:href="#BitstreamVeraSans-Roman-2e"/>
     <use x="95.41015625" xlink:href="#BitstreamVeraSans-Roman-34"/>
     <use x="159.033203125" xlink:href="#BitstreamVeraSans-Roman-25"/>
    </g>
   </g>
  </g>
 </g>
</svg>
