<?xml version="1.0" encoding="utf-8" standalone="no"?>
<!DOCTYPE svg PUBLIC "-//W3C//DTD SVG 1.1//EN"
  "http://www.w3.org/Graphics/SVG/1.1/DTD/svg11.dtd">
<!-- Created with matplotlib (http://matplotlib.org/) -->
<svg height="720pt" version="1.1" viewBox="0 0 720 720" width="720pt" xmlns="http://www.w3.org/2000/svg" xmlns:xlink="http://www.w3.org/1999/xlink">
 <defs>
  <style type="text/css">
*{stroke-linecap:butt;stroke-linejoin:round;stroke-miterlimit:100000;}
  </style>
 </defs>
 <g id="figure_1">
  <g id="patch_1">
   <path d="M 0 720 
L 720 720 
L 720 0 
L 0 0 
z
" style="fill:#ffffff;"/>
  </g>
  <g id="axes_1">
   <g id="patch_2">
    <path d="M 562.296863 462.600012 
C 581.885299 428.671851 592.199998 390.176878 592.2 351.00001 
C 592.200002 311.823143 581.885306 273.328169 562.296874 239.400006 
C 542.708441 205.471843 514.528165 177.291566 480.600003 157.703132 
C 446.671841 138.114697 408.176868 127.8 369 127.8 
L 369 351 
L 562.296863 462.600012 
z
" style="fill:#ce0120;"/>
   </g>
   <g id="patch_3">
    <path d="M 368.999979 574.2 
C 408.176847 574.200004 446.671821 563.88531 480.599985 544.296879 
C 514.528149 524.708448 542.708427 496.528173 562.296863 462.600012 
L 369 351 
L 368.999979 574.2 
z
" style="fill:#ee3b23;"/>
   </g>
   <g id="patch_4">
    <path d="M 283.585039 557.209904 
C 297.092276 562.804786 311.116612 567.059023 325.45582 569.911271 
C 339.795027 572.763518 354.37985 574.199999 368.999979 574.2 
L 369 351 
L 283.585039 557.209904 
z
" style="fill:#f47e1f;"/>
   </g>
   <g id="patch_5">
    <path d="M 257.399981 544.296859 
C 261.617441 546.731811 265.913462 549.028083 270.281145 551.181986 
C 274.648829 553.33589 279.085835 555.346272 283.585039 557.209904 
L 369 351 
L 257.399981 544.296859 
z
" style="fill:#fbb116;"/>
   </g>
   <g id="patch_6">
    <path d="M 211.17375 508.826217 
C 218.062675 515.715144 225.395256 522.145646 233.124431 528.076452 
C 240.853606 534.007258 248.962805 539.425652 257.399981 544.296859 
L 369 351 
L 211.17375 508.826217 
z
" style="fill:#4baa47;"/>
   </g>
   <g id="patch_7">
    <path d="M 162.790079 436.41492 
C 168.384959 449.922159 175.293462 462.847062 183.415969 475.003256 
C 191.538477 487.15945 200.835758 498.488223 211.17375 508.826217 
L 369 351 
L 162.790079 436.41492 
z
" style="fill:#058743;"/>
   </g>
   <g id="patch_8">
    <path d="M 153.405349 408.768387 
C 154.665772 413.472353 156.079809 418.133808 157.645187 422.745266 
C 159.210566 427.356724 160.926449 431.915716 162.790079 436.41492 
L 369 351 
L 153.405349 408.768387 
z
" style="fill:#0033a1;"/>
   </g>
   <g id="patch_9">
    <path d="M 145.8 350.999974 
C 145.799999 360.742387 146.437865 370.474356 147.709504 380.133421 
C 148.981143 389.792486 150.883828 399.357939 153.405349 408.768387 
L 369 351 
L 145.8 350.999974 
z
" style="fill:#225aa7;"/>
   </g>
   <g id="patch_10">
    <path d="M 153.405363 293.231562 
C 150.88384 302.64201 148.981152 312.207462 147.70951 321.866527 
C 146.437869 331.525592 145.800001 341.257561 145.8 350.999974 
L 369 351 
L 153.405363 293.231562 
z
" style="fill:#314397;"/>
   </g>
   <g id="patch_11">
    <path d="M 211.173789 193.173744 
C 197.381213 206.966316 185.45597 222.507591 175.703145 239.399974 
C 165.95032 256.292357 158.453798 274.390556 153.405363 293.231562 
L 369 351 
L 211.173789 193.173744 
z
" style="fill:#0d136b;"/>
   </g>
   <g id="patch_12">
    <path d="M 283.585087 144.790076 
C 270.077848 150.384956 257.152944 157.293458 244.99675 165.415965 
C 232.840556 173.538472 221.511783 182.835753 211.173789 193.173744 
L 369 351 
L 283.585087 144.790076 
z
" style="fill:#3d0f7b;"/>
   </g>
   <g id="patch_13">
    <path d="M 311.23162 135.405347 
C 306.527655 136.66577 301.8662 138.079806 297.254741 139.645185 
C 292.643283 141.210563 288.084291 142.926446 283.585087 144.790076 
L 369 351 
L 311.23162 135.405347 
z
" style="fill:#68067c;"/>
   </g>
   <g id="patch_14">
    <path d="M 339.866587 129.709503 
C 335.038346 130.345152 330.232202 131.138649 325.455872 132.088719 
C 320.679543 133.038789 315.935586 134.144924 311.23162 135.405347 
L 369 351 
L 339.866587 129.709503 
z
" style="fill:#92007c;"/>
   </g>
   <g id="patch_15">
    <path d="M 369.000034 127.8 
C 364.130131 127.799999 359.261532 127.95938 354.402055 128.277886 
C 349.542579 128.596392 344.694827 129.073853 339.866587 129.709503 
L 369 351 
L 369.000034 127.8 
z
" style="fill:#aaaaaa;"/>
   </g>
   <g id="matplotlib.axis_1"/>
   <g id="matplotlib.axis_2"/>
   <g id="text_1">
    <!-- M -->
    <defs>
     <path d="M 9.8125 72.90625 
L 24.515625 72.90625 
L 43.109375 23.296875 
L 61.8125 72.90625 
L 76.515625 72.90625 
L 76.515625 0 
L 66.890625 0 
L 66.890625 64.015625 
L 48.09375 14.015625 
L 38.1875 14.015625 
L 19.390625 64.015625 
L 19.390625 0 
L 9.8125 0 
z
" id="BitstreamVeraSans-Roman-4d"/>
    </defs>
    <g transform="translate(523.637498886 264.479379826)scale(0.1 -0.1)">
     <use xlink:href="#BitstreamVeraSans-Roman-4d"/>
    </g>
   </g>
   <g id="text_2">
    <!-- 33.3% -->
    <defs>
     <path d="M 40.578125 39.3125 
Q 47.65625 37.796875 51.625 33 
Q 55.609375 28.21875 55.609375 21.1875 
Q 55.609375 10.40625 48.1875 4.484375 
Q 40.765625 -1.421875 27.09375 -1.421875 
Q 22.515625 -1.421875 17.65625 -0.515625 
Q 12.796875 0.390625 7.625 2.203125 
L 7.625 11.71875 
Q 11.71875 9.328125 16.59375 8.109375 
Q 21.484375 6.890625 26.8125 6.890625 
Q 36.078125 6.890625 40.9375 10.546875 
Q 45.796875 14.203125 45.796875 21.1875 
Q 45.796875 27.640625 41.28125 31.265625 
Q 36.765625 34.90625 28.71875 34.90625 
L 20.21875 34.90625 
L 20.21875 43.015625 
L 29.109375 43.015625 
Q 36.375 43.015625 40.234375 45.921875 
Q 44.09375 48.828125 44.09375 54.296875 
Q 44.09375 59.90625 40.109375 62.90625 
Q 36.140625 65.921875 28.71875 65.921875 
Q 24.65625 65.921875 20.015625 65.03125 
Q 15.375 64.15625 9.8125 62.3125 
L 9.8125 71.09375 
Q 15.4375 72.65625 20.34375 73.4375 
Q 25.25 74.21875 29.59375 74.21875 
Q 40.828125 74.21875 47.359375 69.109375 
Q 53.90625 64.015625 53.90625 55.328125 
Q 53.90625 49.265625 50.4375 45.09375 
Q 46.96875 40.921875 40.578125 39.3125 
" id="BitstreamVeraSans-Roman-33"/>
     <path d="M 72.703125 32.078125 
Q 68.453125 32.078125 66.03125 28.46875 
Q 63.625 24.859375 63.625 18.40625 
Q 63.625 12.0625 66.03125 8.421875 
Q 68.453125 4.78125 72.703125 4.78125 
Q 76.859375 4.78125 79.265625 8.421875 
Q 81.6875 12.0625 81.6875 18.40625 
Q 81.6875 24.8125 79.265625 28.4375 
Q 76.859375 32.078125 72.703125 32.078125 
M 72.703125 38.28125 
Q 80.421875 38.28125 84.953125 32.90625 
Q 89.5 27.546875 89.5 18.40625 
Q 89.5 9.28125 84.9375 3.921875 
Q 80.375 -1.421875 72.703125 -1.421875 
Q 64.890625 -1.421875 60.34375 3.921875 
Q 55.8125 9.28125 55.8125 18.40625 
Q 55.8125 27.59375 60.375 32.9375 
Q 64.9375 38.28125 72.703125 38.28125 
M 22.3125 68.015625 
Q 18.109375 68.015625 15.6875 64.375 
Q 13.28125 60.75 13.28125 54.390625 
Q 13.28125 47.953125 15.671875 44.328125 
Q 18.0625 40.71875 22.3125 40.71875 
Q 26.5625 40.71875 28.96875 44.328125 
Q 31.390625 47.953125 31.390625 54.390625 
Q 31.390625 60.6875 28.953125 64.34375 
Q 26.515625 68.015625 22.3125 68.015625 
M 66.40625 74.21875 
L 74.21875 74.21875 
L 28.609375 -1.421875 
L 20.796875 -1.421875 
z
M 22.3125 74.21875 
Q 30.03125 74.21875 34.609375 68.875 
Q 39.203125 63.53125 39.203125 54.390625 
Q 39.203125 45.171875 34.640625 39.84375 
Q 30.078125 34.515625 22.3125 34.515625 
Q 14.546875 34.515625 10.03125 39.859375 
Q 5.515625 45.21875 5.515625 54.390625 
Q 5.515625 63.484375 10.046875 68.84375 
Q 14.59375 74.21875 22.3125 74.21875 
" id="BitstreamVeraSans-Roman-25"/>
     <path d="M 10.6875 12.40625 
L 21 12.40625 
L 21 0 
L 10.6875 0 
z
" id="BitstreamVeraSans-Roman-2e"/>
    </defs>
    <g transform="translate(565.742967218 230.999381636)scale(0.1 -0.1)">
     <use xlink:href="#BitstreamVeraSans-Roman-33"/>
     <use x="63.623046875" xlink:href="#BitstreamVeraSans-Roman-33"/>
     <use x="127.24609375" xlink:href="#BitstreamVeraSans-Roman-2e"/>
     <use x="159.033203125" xlink:href="#BitstreamVeraSans-Roman-33"/>
     <use x="222.65625" xlink:href="#BitstreamVeraSans-Roman-25"/>
    </g>
   </g>
   <g id="text_3">
    <!-- O -->
    <defs>
     <path d="M 39.40625 66.21875 
Q 28.65625 66.21875 22.328125 58.203125 
Q 16.015625 50.203125 16.015625 36.375 
Q 16.015625 22.609375 22.328125 14.59375 
Q 28.65625 6.59375 39.40625 6.59375 
Q 50.140625 6.59375 56.421875 14.59375 
Q 62.703125 22.609375 62.703125 36.375 
Q 62.703125 50.203125 56.421875 58.203125 
Q 50.140625 66.21875 39.40625 66.21875 
M 39.40625 74.21875 
Q 54.734375 74.21875 63.90625 63.9375 
Q 73.09375 53.65625 73.09375 36.375 
Q 73.09375 19.140625 63.90625 8.859375 
Q 54.734375 -1.421875 39.40625 -1.421875 
Q 24.03125 -1.421875 14.8125 8.828125 
Q 5.609375 19.09375 5.609375 36.375 
Q 5.609375 53.65625 14.8125 63.9375 
Q 24.03125 74.21875 39.40625 74.21875 
" id="BitstreamVeraSans-Roman-4f"/>
    </defs>
    <g transform="translate(458.279987935 508.396878066)scale(0.1 -0.1)">
     <use xlink:href="#BitstreamVeraSans-Roman-4f"/>
    </g>
   </g>
   <g id="text_4">
    <!-- 16.7% -->
    <defs>
     <path d="M 12.40625 8.296875 
L 28.515625 8.296875 
L 28.515625 63.921875 
L 10.984375 60.40625 
L 10.984375 69.390625 
L 28.421875 72.90625 
L 38.28125 72.90625 
L 38.28125 8.296875 
L 54.390625 8.296875 
L 54.390625 0 
L 12.40625 0 
z
" id="BitstreamVeraSans-Roman-31"/>
     <path d="M 33.015625 40.375 
Q 26.375 40.375 22.484375 35.828125 
Q 18.609375 31.296875 18.609375 23.390625 
Q 18.609375 15.53125 22.484375 10.953125 
Q 26.375 6.390625 33.015625 6.390625 
Q 39.65625 6.390625 43.53125 10.953125 
Q 47.40625 15.53125 47.40625 23.390625 
Q 47.40625 31.296875 43.53125 35.828125 
Q 39.65625 40.375 33.015625 40.375 
M 52.59375 71.296875 
L 52.59375 62.3125 
Q 48.875 64.0625 45.09375 64.984375 
Q 41.3125 65.921875 37.59375 65.921875 
Q 27.828125 65.921875 22.671875 59.328125 
Q 17.53125 52.734375 16.796875 39.40625 
Q 19.671875 43.65625 24.015625 45.921875 
Q 28.375 48.1875 33.59375 48.1875 
Q 44.578125 48.1875 50.953125 41.515625 
Q 57.328125 34.859375 57.328125 23.390625 
Q 57.328125 12.15625 50.6875 5.359375 
Q 44.046875 -1.421875 33.015625 -1.421875 
Q 20.359375 -1.421875 13.671875 8.265625 
Q 6.984375 17.96875 6.984375 36.375 
Q 6.984375 53.65625 15.1875 63.9375 
Q 23.390625 74.21875 37.203125 74.21875 
Q 40.921875 74.21875 44.703125 73.484375 
Q 48.484375 72.75 52.59375 71.296875 
" id="BitstreamVeraSans-Roman-36"/>
     <path d="M 8.203125 72.90625 
L 55.078125 72.90625 
L 55.078125 68.703125 
L 28.609375 0 
L 18.3125 0 
L 43.21875 64.59375 
L 8.203125 64.59375 
z
" id="BitstreamVeraSans-Roman-37"/>
    </defs>
    <g transform="translate(475.87638966 566.385941715)scale(0.1 -0.1)">
     <use xlink:href="#BitstreamVeraSans-Roman-31"/>
     <use x="63.623046875" xlink:href="#BitstreamVeraSans-Roman-36"/>
     <use x="127.24609375" xlink:href="#BitstreamVeraSans-Roman-2e"/>
     <use x="159.033203125" xlink:href="#BitstreamVeraSans-Roman-37"/>
     <use x="222.65625" xlink:href="#BitstreamVeraSans-Roman-25"/>
    </g>
   </g>
   <g id="text_5">
    <!-- T -->
    <defs>
     <path d="M -0.296875 72.90625 
L 61.375 72.90625 
L 61.375 64.59375 
L 35.5 64.59375 
L 35.5 0 
L 25.59375 0 
L 25.59375 64.59375 
L -0.296875 64.59375 
z
" id="BitstreamVeraSans-Roman-54"/>
    </defs>
    <g transform="translate(328.056843204 528.888391407)scale(0.1 -0.1)">
     <use xlink:href="#BitstreamVeraSans-Roman-54"/>
    </g>
   </g>
   <g id="text_6">
    <!-- 6.2% -->
    <defs>
     <path d="M 19.1875 8.296875 
L 53.609375 8.296875 
L 53.609375 0 
L 7.328125 0 
L 7.328125 8.296875 
Q 12.9375 14.109375 22.625 23.890625 
Q 32.328125 33.6875 34.8125 36.53125 
Q 39.546875 41.84375 41.421875 45.53125 
Q 43.3125 49.21875 43.3125 52.78125 
Q 43.3125 58.59375 39.234375 62.25 
Q 35.15625 65.921875 28.609375 65.921875 
Q 23.96875 65.921875 18.8125 64.3125 
Q 13.671875 62.703125 7.8125 59.421875 
L 7.8125 69.390625 
Q 13.765625 71.78125 18.9375 73 
Q 24.125 74.21875 28.421875 74.21875 
Q 39.75 74.21875 46.484375 68.546875 
Q 53.21875 62.890625 53.21875 53.421875 
Q 53.21875 48.921875 51.53125 44.890625 
Q 49.859375 40.875 45.40625 35.40625 
Q 44.1875 33.984375 37.640625 27.21875 
Q 31.109375 20.453125 19.1875 8.296875 
" id="BitstreamVeraSans-Roman-32"/>
    </defs>
    <g transform="translate(308.399057843 594.56177256)scale(0.1 -0.1)">
     <use xlink:href="#BitstreamVeraSans-Roman-36"/>
     <use x="63.623046875" xlink:href="#BitstreamVeraSans-Roman-2e"/>
     <use x="95.41015625" xlink:href="#BitstreamVeraSans-Roman-32"/>
     <use x="159.033203125" xlink:href="#BitstreamVeraSans-Roman-25"/>
    </g>
   </g>
   <g id="text_7">
    <!-- V -->
    <defs>
     <path d="M 28.609375 0 
L 0.78125 72.90625 
L 11.078125 72.90625 
L 34.1875 11.53125 
L 57.328125 72.90625 
L 67.578125 72.90625 
L 39.796875 0 
z
" id="BitstreamVeraSans-Roman-56"/>
    </defs>
    <g transform="translate(283.184291168 513.90496418)scale(0.1 -0.1)">
     <use xlink:href="#BitstreamVeraSans-Roman-56"/>
    </g>
   </g>
   <g id="text_8">
    <!-- 2.1% -->
    <g transform="translate(247.706915981 573.959560122)scale(0.1 -0.1)">
     <use xlink:href="#BitstreamVeraSans-Roman-32"/>
     <use x="63.623046875" xlink:href="#BitstreamVeraSans-Roman-2e"/>
     <use x="95.41015625" xlink:href="#BitstreamVeraSans-Roman-31"/>
     <use x="159.033203125" xlink:href="#BitstreamVeraSans-Roman-25"/>
    </g>
   </g>
   <g id="text_9">
    <!-- J -->
    <defs>
     <path d="M 9.8125 72.90625 
L 19.671875 72.90625 
L 19.671875 5.078125 
Q 19.671875 -8.109375 14.671875 -14.0625 
Q 9.671875 -20.015625 -1.421875 -20.015625 
L -5.171875 -20.015625 
L -5.171875 -11.71875 
L -2.09375 -11.71875 
Q 4.4375 -11.71875 7.125 -8.046875 
Q 9.8125 -4.390625 9.8125 5.078125 
z
" id="BitstreamVeraSans-Roman-4a"/>
    </defs>
    <g transform="translate(257.349544868 495.420536417)scale(0.1 -0.1)">
     <use xlink:href="#BitstreamVeraSans-Roman-4a"/>
    </g>
   </g>
   <g id="text_10">
    <!-- 4.2% -->
    <defs>
     <path d="M 37.796875 64.3125 
L 12.890625 25.390625 
L 37.796875 25.390625 
z
M 35.203125 72.90625 
L 47.609375 72.90625 
L 47.609375 25.390625 
L 58.015625 25.390625 
L 58.015625 17.1875 
L 47.609375 17.1875 
L 47.609375 0 
L 37.796875 0 
L 37.796875 17.1875 
L 4.890625 17.1875 
L 4.890625 26.703125 
z
" id="BitstreamVeraSans-Roman-34"/>
    </defs>
    <g transform="translate(206.834530443 548.543471948)scale(0.1 -0.1)">
     <use xlink:href="#BitstreamVeraSans-Roman-34"/>
     <use x="63.623046875" xlink:href="#BitstreamVeraSans-Roman-2e"/>
     <use x="95.41015625" xlink:href="#BitstreamVeraSans-Roman-32"/>
     <use x="159.033203125" xlink:href="#BitstreamVeraSans-Roman-25"/>
    </g>
   </g>
   <g id="text_11">
    <!-- K -->
    <defs>
     <path d="M 9.8125 72.90625 
L 19.671875 72.90625 
L 19.671875 42.09375 
L 52.390625 72.90625 
L 65.09375 72.90625 
L 28.90625 38.921875 
L 67.671875 0 
L 54.6875 0 
L 19.671875 35.109375 
L 19.671875 0 
L 9.8125 0 
z
" id="BitstreamVeraSans-Roman-4b"/>
    </defs>
    <g transform="translate(213.974963078 452.96198017)scale(0.1 -0.1)">
     <use xlink:href="#BitstreamVeraSans-Roman-4b"/>
    </g>
   </g>
   <g id="text_12">
    <!-- 6.2% -->
    <g transform="translate(152.15522267 490.162957109)scale(0.1 -0.1)">
     <use xlink:href="#BitstreamVeraSans-Roman-36"/>
     <use x="63.623046875" xlink:href="#BitstreamVeraSans-Roman-2e"/>
     <use x="95.41015625" xlink:href="#BitstreamVeraSans-Roman-32"/>
     <use x="159.033203125" xlink:href="#BitstreamVeraSans-Roman-25"/>
    </g>
   </g>
   <g id="text_13">
    <!-- C -->
    <defs>
     <path d="M 64.40625 67.28125 
L 64.40625 56.890625 
Q 59.421875 61.53125 53.78125 63.8125 
Q 48.140625 66.109375 41.796875 66.109375 
Q 29.296875 66.109375 22.65625 58.46875 
Q 16.015625 50.828125 16.015625 36.375 
Q 16.015625 21.96875 22.65625 14.328125 
Q 29.296875 6.6875 41.796875 6.6875 
Q 48.140625 6.6875 53.78125 8.984375 
Q 59.421875 11.28125 64.40625 15.921875 
L 64.40625 5.609375 
Q 59.234375 2.09375 53.4375 0.328125 
Q 47.65625 -1.421875 41.21875 -1.421875 
Q 24.65625 -1.421875 15.125 8.703125 
Q 5.609375 18.84375 5.609375 36.375 
Q 5.609375 53.953125 15.125 64.078125 
Q 24.65625 74.21875 41.21875 74.21875 
Q 47.75 74.21875 53.53125 72.484375 
Q 59.328125 70.75 64.40625 67.28125 
" id="BitstreamVeraSans-Roman-43"/>
    </defs>
    <g transform="translate(192.93333742 411.155587785)scale(0.1 -0.1)">
     <use xlink:href="#BitstreamVeraSans-Roman-43"/>
    </g>
   </g>
   <g id="text_14">
    <!-- 2.1% -->
    <g transform="translate(123.80736239 432.67916758)scale(0.1 -0.1)">
     <use xlink:href="#BitstreamVeraSans-Roman-32"/>
     <use x="63.623046875" xlink:href="#BitstreamVeraSans-Roman-2e"/>
     <use x="95.41015625" xlink:href="#BitstreamVeraSans-Roman-31"/>
     <use x="159.033203125" xlink:href="#BitstreamVeraSans-Roman-25"/>
    </g>
   </g>
   <g id="text_15">
    <!-- E -->
    <defs>
     <path d="M 9.8125 72.90625 
L 55.90625 72.90625 
L 55.90625 64.59375 
L 19.671875 64.59375 
L 19.671875 43.015625 
L 54.390625 43.015625 
L 54.390625 34.71875 
L 19.671875 34.71875 
L 19.671875 8.296875 
L 56.78125 8.296875 
L 56.78125 0 
L 9.8125 0 
z
" id="BitstreamVeraSans-Roman-45"/>
    </defs>
    <g transform="translate(185.648852916 377.066111855)scale(0.1 -0.1)">
     <use xlink:href="#BitstreamVeraSans-Roman-45"/>
    </g>
   </g>
   <g id="text_16">
    <!-- 4.2% -->
    <g transform="translate(112.87811026 385.806138175)scale(0.1 -0.1)">
     <use xlink:href="#BitstreamVeraSans-Roman-34"/>
     <use x="63.623046875" xlink:href="#BitstreamVeraSans-Roman-2e"/>
     <use x="95.41015625" xlink:href="#BitstreamVeraSans-Roman-32"/>
     <use x="159.033203125" xlink:href="#BitstreamVeraSans-Roman-25"/>
    </g>
   </g>
   <g id="text_17">
    <!-- F -->
    <defs>
     <path d="M 9.8125 72.90625 
L 51.703125 72.90625 
L 51.703125 64.59375 
L 19.671875 64.59375 
L 19.671875 43.109375 
L 48.578125 43.109375 
L 48.578125 34.8125 
L 19.671875 34.8125 
L 19.671875 0 
L 9.8125 0 
z
" id="BitstreamVeraSans-Roman-46"/>
    </defs>
    <g transform="translate(186.216045872 330.452596708)scale(0.1 -0.1)">
     <use xlink:href="#BitstreamVeraSans-Roman-46"/>
    </g>
   </g>
   <g id="text_18">
    <!-- 4.2% -->
    <g transform="translate(112.878117761 321.712554848)scale(0.1 -0.1)">
     <use xlink:href="#BitstreamVeraSans-Roman-34"/>
     <use x="63.623046875" xlink:href="#BitstreamVeraSans-Roman-2e"/>
     <use x="95.41015625" xlink:href="#BitstreamVeraSans-Roman-32"/>
     <use x="159.033203125" xlink:href="#BitstreamVeraSans-Roman-25"/>
    </g>
   </g>
   <g id="text_19">
    <!-- G -->
    <defs>
     <path d="M 59.515625 10.40625 
L 59.515625 29.984375 
L 43.40625 29.984375 
L 43.40625 38.09375 
L 69.28125 38.09375 
L 69.28125 6.78125 
Q 63.578125 2.734375 56.6875 0.65625 
Q 49.8125 -1.421875 42 -1.421875 
Q 24.90625 -1.421875 15.25 8.5625 
Q 5.609375 18.5625 5.609375 36.375 
Q 5.609375 54.25 15.25 64.234375 
Q 24.90625 74.21875 42 74.21875 
Q 49.125 74.21875 55.546875 72.453125 
Q 61.96875 70.703125 67.390625 67.28125 
L 67.390625 56.78125 
Q 61.921875 61.421875 55.765625 63.765625 
Q 49.609375 66.109375 42.828125 66.109375 
Q 29.4375 66.109375 22.71875 58.640625 
Q 16.015625 51.171875 16.015625 36.375 
Q 16.015625 21.625 22.71875 14.15625 
Q 29.4375 6.6875 42.828125 6.6875 
Q 48.046875 6.6875 52.140625 7.59375 
Q 56.25 8.5 59.515625 10.40625 
" id="BitstreamVeraSans-Roman-47"/>
    </defs>
    <g transform="translate(206.614078242 264.479354489)scale(0.1 -0.1)">
     <use xlink:href="#BitstreamVeraSans-Roman-47"/>
    </g>
   </g>
   <g id="text_20">
    <!-- 8.3% -->
    <defs>
     <path d="M 31.78125 34.625 
Q 24.75 34.625 20.71875 30.859375 
Q 16.703125 27.09375 16.703125 20.515625 
Q 16.703125 13.921875 20.71875 10.15625 
Q 24.75 6.390625 31.78125 6.390625 
Q 38.8125 6.390625 42.859375 10.171875 
Q 46.921875 13.96875 46.921875 20.515625 
Q 46.921875 27.09375 42.890625 30.859375 
Q 38.875 34.625 31.78125 34.625 
M 21.921875 38.8125 
Q 15.578125 40.375 12.03125 44.71875 
Q 8.5 49.078125 8.5 55.328125 
Q 8.5 64.0625 14.71875 69.140625 
Q 20.953125 74.21875 31.78125 74.21875 
Q 42.671875 74.21875 48.875 69.140625 
Q 55.078125 64.0625 55.078125 55.328125 
Q 55.078125 49.078125 51.53125 44.71875 
Q 48 40.375 41.703125 38.8125 
Q 48.828125 37.15625 52.796875 32.3125 
Q 56.78125 27.484375 56.78125 20.515625 
Q 56.78125 9.90625 50.3125 4.234375 
Q 43.84375 -1.421875 31.78125 -1.421875 
Q 19.734375 -1.421875 13.25 4.234375 
Q 6.78125 9.90625 6.78125 20.515625 
Q 6.78125 27.484375 10.78125 32.3125 
Q 14.796875 37.15625 21.921875 38.8125 
M 18.3125 54.390625 
Q 18.3125 48.734375 21.84375 45.5625 
Q 25.390625 42.390625 31.78125 42.390625 
Q 38.140625 42.390625 41.71875 45.5625 
Q 45.3125 48.734375 45.3125 54.390625 
Q 45.3125 60.0625 41.71875 63.234375 
Q 38.140625 66.40625 31.78125 66.40625 
Q 25.390625 66.40625 21.84375 63.234375 
Q 18.3125 60.0625 18.3125 54.390625 
" id="BitstreamVeraSans-Roman-38"/>
    </defs>
    <g transform="translate(143.671115395 230.999346798)scale(0.1 -0.1)">
     <use xlink:href="#BitstreamVeraSans-Roman-38"/>
     <use x="63.623046875" xlink:href="#BitstreamVeraSans-Roman-2e"/>
     <use x="95.41015625" xlink:href="#BitstreamVeraSans-Roman-33"/>
     <use x="159.033203125" xlink:href="#BitstreamVeraSans-Roman-25"/>
    </g>
   </g>
   <g id="text_21">
    <!-- I -->
    <defs>
     <path d="M 9.8125 72.90625 
L 19.671875 72.90625 
L 19.671875 0 
L 9.8125 0 
z
" id="BitstreamVeraSans-Roman-49"/>
    </defs>
    <g transform="translate(266.847400043 205.292147095)scale(0.1 -0.1)">
     <use xlink:href="#BitstreamVeraSans-Roman-49"/>
    </g>
   </g>
   <g id="text_22">
    <!-- 6.2% -->
    <g transform="translate(219.894081309 149.616936631)scale(0.1 -0.1)">
     <use xlink:href="#BitstreamVeraSans-Roman-36"/>
     <use x="63.623046875" xlink:href="#BitstreamVeraSans-Roman-2e"/>
     <use x="95.41015625" xlink:href="#BitstreamVeraSans-Roman-32"/>
     <use x="159.033203125" xlink:href="#BitstreamVeraSans-Roman-25"/>
    </g>
   </g>
   <g id="text_23">
    <!-- P -->
    <defs>
     <path d="M 19.671875 64.796875 
L 19.671875 37.40625 
L 32.078125 37.40625 
Q 38.96875 37.40625 42.71875 40.96875 
Q 46.484375 44.53125 46.484375 51.125 
Q 46.484375 57.671875 42.71875 61.234375 
Q 38.96875 64.796875 32.078125 64.796875 
z
M 9.8125 72.90625 
L 32.078125 72.90625 
Q 44.34375 72.90625 50.609375 67.359375 
Q 56.890625 61.8125 56.890625 51.125 
Q 56.890625 40.328125 50.609375 34.8125 
Q 44.34375 29.296875 32.078125 29.296875 
L 19.671875 29.296875 
L 19.671875 0 
L 9.8125 0 
z
" id="BitstreamVeraSans-Roman-50"/>
    </defs>
    <g transform="translate(305.574105651 184.675522905)scale(0.1 -0.1)">
     <use xlink:href="#BitstreamVeraSans-Roman-50"/>
    </g>
   </g>
   <g id="text_24">
    <!-- 2.1% -->
    <g transform="translate(277.377871833 121.269078369)scale(0.1 -0.1)">
     <use xlink:href="#BitstreamVeraSans-Roman-32"/>
     <use x="63.623046875" xlink:href="#BitstreamVeraSans-Roman-2e"/>
     <use x="95.41015625" xlink:href="#BitstreamVeraSans-Roman-31"/>
     <use x="159.033203125" xlink:href="#BitstreamVeraSans-Roman-25"/>
    </g>
   </g>
   <g id="text_25">
    <!-- Q -->
    <defs>
     <path d="M 39.40625 66.21875 
Q 28.65625 66.21875 22.328125 58.203125 
Q 16.015625 50.203125 16.015625 36.375 
Q 16.015625 22.609375 22.328125 14.59375 
Q 28.65625 6.59375 39.40625 6.59375 
Q 50.140625 6.59375 56.421875 14.59375 
Q 62.703125 22.609375 62.703125 36.375 
Q 62.703125 50.203125 56.421875 58.203125 
Q 50.140625 66.21875 39.40625 66.21875 
M 53.21875 1.3125 
L 66.21875 -12.890625 
L 54.296875 -12.890625 
L 43.5 -1.21875 
Q 41.890625 -1.3125 41.03125 -1.359375 
Q 40.1875 -1.421875 39.40625 -1.421875 
Q 24.03125 -1.421875 14.8125 8.859375 
Q 5.609375 19.140625 5.609375 36.375 
Q 5.609375 53.65625 14.8125 63.9375 
Q 24.03125 74.21875 39.40625 74.21875 
Q 54.734375 74.21875 63.90625 63.9375 
Q 73.09375 53.65625 73.09375 36.375 
Q 73.09375 23.6875 67.984375 14.640625 
Q 62.890625 5.609375 53.21875 1.3125 
" id="BitstreamVeraSans-Roman-51"/>
    </defs>
    <g transform="translate(326.292822721 178.630350235)scale(0.1 -0.1)">
     <use xlink:href="#BitstreamVeraSans-Roman-51"/>
    </g>
   </g>
   <g id="text_26">
    <!-- 2.1% -->
    <g transform="translate(308.399115616 112.956965948)scale(0.1 -0.1)">
     <use xlink:href="#BitstreamVeraSans-Roman-32"/>
     <use x="63.623046875" xlink:href="#BitstreamVeraSans-Roman-2e"/>
     <use x="95.41015625" xlink:href="#BitstreamVeraSans-Roman-31"/>
     <use x="159.033203125" xlink:href="#BitstreamVeraSans-Roman-25"/>
    </g>
   </g>
   <g id="text_27">
    <!-- R -->
    <defs>
     <path d="M 44.390625 34.1875 
Q 47.5625 33.109375 50.5625 29.59375 
Q 53.5625 26.078125 56.59375 19.921875 
L 66.609375 0 
L 56 0 
L 46.6875 18.703125 
Q 43.0625 26.03125 39.671875 28.421875 
Q 36.28125 30.8125 30.421875 30.8125 
L 19.671875 30.8125 
L 19.671875 0 
L 9.8125 0 
L 9.8125 72.90625 
L 32.078125 72.90625 
Q 44.578125 72.90625 50.734375 67.671875 
Q 56.890625 62.453125 56.890625 51.90625 
Q 56.890625 45.015625 53.6875 40.46875 
Q 50.484375 35.9375 44.390625 34.1875 
M 19.671875 64.796875 
L 19.671875 38.921875 
L 32.078125 38.921875 
Q 39.203125 38.921875 42.84375 42.21875 
Q 46.484375 45.515625 46.484375 51.90625 
Q 46.484375 58.296875 42.84375 61.546875 
Q 39.203125 64.796875 32.078125 64.796875 
z
" id="BitstreamVeraSans-Roman-52"/>
    </defs>
    <g transform="translate(350.373206506 175.581683913)scale(0.1 -0.1)">
     <use xlink:href="#BitstreamVeraSans-Roman-52"/>
    </g>
   </g>
   <g id="text_28">
    <!-- 2.1% -->
    <g transform="translate(340.239916758 108.765049755)scale(0.1 -0.1)">
     <use xlink:href="#BitstreamVeraSans-Roman-32"/>
     <use x="63.623046875" xlink:href="#BitstreamVeraSans-Roman-2e"/>
     <use x="95.41015625" xlink:href="#BitstreamVeraSans-Roman-31"/>
     <use x="159.033203125" xlink:href="#BitstreamVeraSans-Roman-25"/>
    </g>
   </g>
  </g>
 </g>
</svg>
