<?xml version="1.0" encoding="utf-8" standalone="no"?>
<!DOCTYPE svg PUBLIC "-//W3C//DTD SVG 1.1//EN"
  "http://www.w3.org/Graphics/SVG/1.1/DTD/svg11.dtd">
<!-- Created with matplotlib (http://matplotlib.org/) -->
<svg height="720pt" version="1.1" viewBox="0 0 720 720" width="720pt" xmlns="http://www.w3.org/2000/svg" xmlns:xlink="http://www.w3.org/1999/xlink">
 <defs>
  <style type="text/css">
*{stroke-linecap:butt;stroke-linejoin:round;stroke-miterlimit:100000;}
  </style>
 </defs>
 <g id="figure_1">
  <g id="patch_1">
   <path d="M 0 720 
L 720 720 
L 720 0 
L 0 0 
z
" style="fill:#ffffff;"/>
  </g>
  <g id="axes_1">
   <g id="patch_2">
    <path d="M 572.029865 443.720624 
C 587.55702 409.720892 594.29779 372.359312 591.631312 335.077089 
C 588.964833 297.794865 576.975566 261.772884 556.767786 230.328966 
C 536.560007 198.885049 508.773781 173.015157 475.968372 155.102049 
C 443.162963 137.18894 406.377457 127.8 369 127.8 
L 369 351 
L 572.029865 443.720624 
z
" style="fill:#ce0120;"/>
   </g>
   <g id="patch_3">
    <path d="M 489.671034 538.767786 
C 507.576807 527.260444 523.744838 513.250765 537.683309 497.164912 
C 551.621779 481.079058 563.187909 463.081808 572.029865 443.720624 
L 369 351 
L 489.671034 538.767786 
z
" style="fill:#ee3b23;"/>
   </g>
   <g id="patch_4">
    <path d="M 431.882709 565.158831 
C 442.080974 562.16435 452.052331 558.445226 461.720633 554.02986 
C 471.388936 549.614494 480.729512 544.514154 489.671034 538.767786 
L 369 351 
L 431.882709 565.158831 
z
" style="fill:#f47e1f;"/>
   </g>
   <g id="patch_5">
    <path d="M 369 574.2 
C 379.628807 574.2 390.244052 573.440783 400.764673 571.928146 
C 411.285294 570.415509 421.684443 568.153312 431.882709 565.158831 
L 369 351 
L 369 574.2 
z
" style="fill:#fbb116;"/>
   </g>
   <g id="patch_6">
    <path d="M 248.328966 538.767786 
C 266.23474 550.275129 285.694835 559.162257 306.117291 565.158831 
C 326.539748 571.155406 347.715366 574.2 369 574.2 
L 369 351 
L 248.328966 538.767786 
z
" style="fill:#4baa47;"/>
   </g>
   <g id="patch_7">
    <path d="M 165.970135 443.720624 
C 174.812091 463.081808 186.378221 481.079058 200.316691 497.164912 
C 214.255162 513.250765 230.423193 527.260444 248.328966 538.767786 
L 369 351 
L 165.970135 443.720624 
z
" style="fill:#058743;"/>
   </g>
   <g id="patch_8">
    <path d="M 148.071853 382.764663 
C 149.584489 393.285284 151.846685 403.684433 154.841166 413.882698 
C 157.835646 424.080964 161.55477 434.052321 165.970135 443.720624 
L 369 351 
L 148.071853 382.764663 
z
" style="fill:#03743b;"/>
   </g>
   <g id="patch_9">
    <path d="M 148.071856 319.235317 
C 146.559218 329.755938 145.8 340.371183 145.8 350.99999 
C 145.8 361.628797 146.559216 372.244041 148.071853 382.764663 
L 369 351 
L 148.071856 319.235317 
z
" style="fill:#0033a1;"/>
   </g>
   <g id="patch_10">
    <path d="M 165.970144 258.279357 
C 161.554778 267.94766 157.835653 277.919016 154.841172 288.117281 
C 151.84669 298.315547 149.584493 308.714696 148.071856 319.235317 
L 369 351 
L 165.970144 258.279357 
z
" style="fill:#225aa7;"/>
   </g>
   <g id="patch_11">
    <path d="M 200.316705 204.835073 
C 193.356316 212.867789 186.978587 221.387437 181.232219 230.328958 
C 175.485852 239.270479 170.385511 248.611054 165.970144 258.279357 
L 369 351 
L 200.316705 204.835073 
z
" style="fill:#314397;"/>
   </g>
   <g id="patch_12">
    <path d="M 222.835096 182.316684 
C 218.820016 185.795771 214.930432 189.417101 211.173778 193.173755 
C 207.417123 196.93041 203.795792 200.819993 200.316705 204.835073 
L 369 351 
L 222.835096 182.316684 
z
" style="fill:#0d136b;"/>
   </g>
   <g id="patch_13">
    <path d="M 248.328984 163.232202 
C 243.859646 166.104471 239.494283 169.135396 235.241238 172.319185 
C 230.988193 175.502974 226.850176 178.837598 222.835096 182.316684 
L 369 351 
L 248.328984 163.232202 
z
" style="fill:#c3a0d9;"/>
   </g>
   <g id="patch_14">
    <path d="M 337.235348 130.071851 
C 321.446052 132.342008 305.945517 136.298282 290.999612 141.872815 
C 276.053708 147.447348 261.748376 154.608084 248.328984 163.232202 
L 369 351 
L 337.235348 130.071851 
z
" style="fill:#3d0f7b;"/>
   </g>
   <g id="patch_15">
    <path d="M 369.000021 127.8 
C 363.687309 127.8 358.37629 127.989683 353.077115 128.368687 
C 347.777939 128.747691 342.493984 129.315774 337.235348 130.071851 
L 369 351 
L 369.000021 127.8 
z
" style="fill:#68067c;"/>
   </g>
   <g id="matplotlib.axis_1"/>
   <g id="matplotlib.axis_2"/>
   <g id="text_1">
    <!-- M -->
    <defs>
     <path d="M 9.8125 72.90625 
L 24.515625 72.90625 
L 43.109375 23.296875 
L 61.8125 72.90625 
L 76.515625 72.90625 
L 76.515625 0 
L 66.890625 0 
L 66.890625 64.015625 
L 48.09375 14.015625 
L 38.1875 14.015625 
L 19.390625 64.015625 
L 19.390625 0 
L 9.8125 0 
z
" id="BitstreamVeraSans-Roman-4d"/>
    </defs>
    <g transform="translate(519.214229179 257.222548078)scale(0.1 -0.1)">
     <use xlink:href="#BitstreamVeraSans-Roman-4d"/>
    </g>
   </g>
   <g id="text_2">
    <!-- 31.8% -->
    <defs>
     <path d="M 40.578125 39.3125 
Q 47.65625 37.796875 51.625 33 
Q 55.609375 28.21875 55.609375 21.1875 
Q 55.609375 10.40625 48.1875 4.484375 
Q 40.765625 -1.421875 27.09375 -1.421875 
Q 22.515625 -1.421875 17.65625 -0.515625 
Q 12.796875 0.390625 7.625 2.203125 
L 7.625 11.71875 
Q 11.71875 9.328125 16.59375 8.109375 
Q 21.484375 6.890625 26.8125 6.890625 
Q 36.078125 6.890625 40.9375 10.546875 
Q 45.796875 14.203125 45.796875 21.1875 
Q 45.796875 27.640625 41.28125 31.265625 
Q 36.765625 34.90625 28.71875 34.90625 
L 20.21875 34.90625 
L 20.21875 43.015625 
L 29.109375 43.015625 
Q 36.375 43.015625 40.234375 45.921875 
Q 44.09375 48.828125 44.09375 54.296875 
Q 44.09375 59.90625 40.109375 62.90625 
Q 36.140625 65.921875 28.71875 65.921875 
Q 24.65625 65.921875 20.015625 65.03125 
Q 15.375 64.15625 9.8125 62.3125 
L 9.8125 71.09375 
Q 15.4375 72.65625 20.34375 73.4375 
Q 25.25 74.21875 29.59375 74.21875 
Q 40.828125 74.21875 47.359375 69.109375 
Q 53.90625 64.015625 53.90625 55.328125 
Q 53.90625 49.265625 50.4375 45.09375 
Q 46.96875 40.921875 40.578125 39.3125 
" id="BitstreamVeraSans-Roman-33"/>
     <path d="M 31.78125 34.625 
Q 24.75 34.625 20.71875 30.859375 
Q 16.703125 27.09375 16.703125 20.515625 
Q 16.703125 13.921875 20.71875 10.15625 
Q 24.75 6.390625 31.78125 6.390625 
Q 38.8125 6.390625 42.859375 10.171875 
Q 46.921875 13.96875 46.921875 20.515625 
Q 46.921875 27.09375 42.890625 30.859375 
Q 38.875 34.625 31.78125 34.625 
M 21.921875 38.8125 
Q 15.578125 40.375 12.03125 44.71875 
Q 8.5 49.078125 8.5 55.328125 
Q 8.5 64.0625 14.71875 69.140625 
Q 20.953125 74.21875 31.78125 74.21875 
Q 42.671875 74.21875 48.875 69.140625 
Q 55.078125 64.0625 55.078125 55.328125 
Q 55.078125 49.078125 51.53125 44.71875 
Q 48 40.375 41.703125 38.8125 
Q 48.828125 37.15625 52.796875 32.3125 
Q 56.78125 27.484375 56.78125 20.515625 
Q 56.78125 9.90625 50.3125 4.234375 
Q 43.84375 -1.421875 31.78125 -1.421875 
Q 19.734375 -1.421875 13.25 4.234375 
Q 6.78125 9.90625 6.78125 20.515625 
Q 6.78125 27.484375 10.78125 32.3125 
Q 14.796875 37.15625 21.921875 38.8125 
M 18.3125 54.390625 
Q 18.3125 48.734375 21.84375 45.5625 
Q 25.390625 42.390625 31.78125 42.390625 
Q 38.140625 42.390625 41.71875 45.5625 
Q 45.3125 48.734375 45.3125 54.390625 
Q 45.3125 60.0625 41.71875 63.234375 
Q 38.140625 66.40625 31.78125 66.40625 
Q 25.390625 66.40625 21.84375 63.234375 
Q 18.3125 60.0625 18.3125 54.390625 
" id="BitstreamVeraSans-Roman-38"/>
     <path d="M 12.40625 8.296875 
L 28.515625 8.296875 
L 28.515625 63.921875 
L 10.984375 60.40625 
L 10.984375 69.390625 
L 28.421875 72.90625 
L 38.28125 72.90625 
L 38.28125 8.296875 
L 54.390625 8.296875 
L 54.390625 0 
L 12.40625 0 
z
" id="BitstreamVeraSans-Roman-31"/>
     <path d="M 10.6875 12.40625 
L 21 12.40625 
L 21 0 
L 10.6875 0 
z
" id="BitstreamVeraSans-Roman-2e"/>
     <path d="M 72.703125 32.078125 
Q 68.453125 32.078125 66.03125 28.46875 
Q 63.625 24.859375 63.625 18.40625 
Q 63.625 12.0625 66.03125 8.421875 
Q 68.453125 4.78125 72.703125 4.78125 
Q 76.859375 4.78125 79.265625 8.421875 
Q 81.6875 12.0625 81.6875 18.40625 
Q 81.6875 24.8125 79.265625 28.4375 
Q 76.859375 32.078125 72.703125 32.078125 
M 72.703125 38.28125 
Q 80.421875 38.28125 84.953125 32.90625 
Q 89.5 27.546875 89.5 18.40625 
Q 89.5 9.28125 84.9375 3.921875 
Q 80.375 -1.421875 72.703125 -1.421875 
Q 64.890625 -1.421875 60.34375 3.921875 
Q 55.8125 9.28125 55.8125 18.40625 
Q 55.8125 27.59375 60.375 32.9375 
Q 64.9375 38.28125 72.703125 38.28125 
M 22.3125 68.015625 
Q 18.109375 68.015625 15.6875 64.375 
Q 13.28125 60.75 13.28125 54.390625 
Q 13.28125 47.953125 15.671875 44.328125 
Q 18.0625 40.71875 22.3125 40.71875 
Q 26.5625 40.71875 28.96875 44.328125 
Q 31.390625 47.953125 31.390625 54.390625 
Q 31.390625 60.6875 28.953125 64.34375 
Q 26.515625 68.015625 22.3125 68.015625 
M 66.40625 74.21875 
L 74.21875 74.21875 
L 28.609375 -1.421875 
L 20.796875 -1.421875 
z
M 22.3125 74.21875 
Q 30.03125 74.21875 34.609375 68.875 
Q 39.203125 63.53125 39.203125 54.390625 
Q 39.203125 45.171875 34.640625 39.84375 
Q 30.078125 34.515625 22.3125 34.515625 
Q 14.546875 34.515625 10.03125 39.859375 
Q 5.515625 45.21875 5.515625 54.390625 
Q 5.515625 63.484375 10.046875 68.84375 
Q 14.59375 74.21875 22.3125 74.21875 
" id="BitstreamVeraSans-Roman-25"/>
    </defs>
    <g transform="translate(559.660971371 221.021237982)scale(0.1 -0.1)">
     <use xlink:href="#BitstreamVeraSans-Roman-33"/>
     <use x="63.623046875" xlink:href="#BitstreamVeraSans-Roman-31"/>
     <use x="127.24609375" xlink:href="#BitstreamVeraSans-Roman-2e"/>
     <use x="159.033203125" xlink:href="#BitstreamVeraSans-Roman-38"/>
     <use x="222.65625" xlink:href="#BitstreamVeraSans-Roman-25"/>
    </g>
   </g>
   <g id="text_3">
    <!-- O -->
    <defs>
     <path d="M 39.40625 66.21875 
Q 28.65625 66.21875 22.328125 58.203125 
Q 16.015625 50.203125 16.015625 36.375 
Q 16.015625 22.609375 22.328125 14.59375 
Q 28.65625 6.59375 39.40625 6.59375 
Q 50.140625 6.59375 56.421875 14.59375 
Q 62.703125 22.609375 62.703125 36.375 
Q 62.703125 50.203125 56.421875 58.203125 
Q 50.140625 66.21875 39.40625 66.21875 
M 39.40625 74.21875 
Q 54.734375 74.21875 63.90625 63.9375 
Q 73.09375 53.65625 73.09375 36.375 
Q 73.09375 19.140625 63.90625 8.859375 
Q 54.734375 -1.421875 39.40625 -1.421875 
Q 24.03125 -1.421875 14.8125 8.828125 
Q 5.609375 19.09375 5.609375 36.375 
Q 5.609375 53.65625 14.8125 63.9375 
Q 24.03125 74.21875 39.40625 74.21875 
" id="BitstreamVeraSans-Roman-4f"/>
    </defs>
    <g transform="translate(503.946646983 470.691304207)scale(0.1 -0.1)">
     <use xlink:href="#BitstreamVeraSans-Roman-4f"/>
    </g>
   </g>
   <g id="text_4">
    <!-- 9.1% -->
    <defs>
     <path d="M 10.984375 1.515625 
L 10.984375 10.5 
Q 14.703125 8.734375 18.5 7.8125 
Q 22.3125 6.890625 25.984375 6.890625 
Q 35.75 6.890625 40.890625 13.453125 
Q 46.046875 20.015625 46.78125 33.40625 
Q 43.953125 29.203125 39.59375 26.953125 
Q 35.25 24.703125 29.984375 24.703125 
Q 19.046875 24.703125 12.671875 31.3125 
Q 6.296875 37.9375 6.296875 49.421875 
Q 6.296875 60.640625 12.9375 67.421875 
Q 19.578125 74.21875 30.609375 74.21875 
Q 43.265625 74.21875 49.921875 64.515625 
Q 56.59375 54.828125 56.59375 36.375 
Q 56.59375 19.140625 48.40625 8.859375 
Q 40.234375 -1.421875 26.421875 -1.421875 
Q 22.703125 -1.421875 18.890625 -0.6875 
Q 15.09375 0.046875 10.984375 1.515625 
M 30.609375 32.421875 
Q 37.25 32.421875 41.125 36.953125 
Q 45.015625 41.5 45.015625 49.421875 
Q 45.015625 57.28125 41.125 61.84375 
Q 37.25 66.40625 30.609375 66.40625 
Q 23.96875 66.40625 20.09375 61.84375 
Q 16.21875 57.28125 16.21875 49.421875 
Q 16.21875 41.5 20.09375 36.953125 
Q 23.96875 32.421875 30.609375 32.421875 
" id="BitstreamVeraSans-Roman-39"/>
    </defs>
    <g transform="translate(541.849295851 514.54077766)scale(0.1 -0.1)">
     <use xlink:href="#BitstreamVeraSans-Roman-39"/>
     <use x="63.623046875" xlink:href="#BitstreamVeraSans-Roman-2e"/>
     <use x="95.41015625" xlink:href="#BitstreamVeraSans-Roman-31"/>
     <use x="159.033203125" xlink:href="#BitstreamVeraSans-Roman-25"/>
    </g>
   </g>
   <g id="text_5">
    <!-- T -->
    <defs>
     <path d="M -0.296875 72.90625 
L 61.375 72.90625 
L 61.375 64.59375 
L 35.5 64.59375 
L 35.5 0 
L 25.59375 0 
L 25.59375 64.59375 
L -0.296875 64.59375 
z
" id="BitstreamVeraSans-Roman-54"/>
    </defs>
    <g transform="translate(443.176506795 516.183263143)scale(0.1 -0.1)">
     <use xlink:href="#BitstreamVeraSans-Roman-54"/>
    </g>
   </g>
   <g id="text_6">
    <!-- 4.5% -->
    <defs>
     <path d="M 37.796875 64.3125 
L 12.890625 25.390625 
L 37.796875 25.390625 
z
M 35.203125 72.90625 
L 47.609375 72.90625 
L 47.609375 25.390625 
L 58.015625 25.390625 
L 58.015625 17.1875 
L 47.609375 17.1875 
L 47.609375 0 
L 37.796875 0 
L 37.796875 17.1875 
L 4.890625 17.1875 
L 4.890625 26.703125 
z
" id="BitstreamVeraSans-Roman-34"/>
     <path d="M 10.796875 72.90625 
L 49.515625 72.90625 
L 49.515625 64.59375 
L 19.828125 64.59375 
L 19.828125 46.734375 
Q 21.96875 47.46875 24.109375 47.828125 
Q 26.265625 48.1875 28.421875 48.1875 
Q 40.625 48.1875 47.75 41.5 
Q 54.890625 34.8125 54.890625 23.390625 
Q 54.890625 11.625 47.5625 5.09375 
Q 40.234375 -1.421875 26.90625 -1.421875 
Q 22.3125 -1.421875 17.546875 -0.640625 
Q 12.796875 0.140625 7.71875 1.703125 
L 7.71875 11.625 
Q 12.109375 9.234375 16.796875 8.0625 
Q 21.484375 6.890625 26.703125 6.890625 
Q 35.15625 6.890625 40.078125 11.328125 
Q 45.015625 15.765625 45.015625 23.390625 
Q 45.015625 31 40.078125 35.4375 
Q 35.15625 39.890625 26.703125 39.890625 
Q 22.75 39.890625 18.8125 39.015625 
Q 14.890625 38.140625 10.796875 36.28125 
z
" id="BitstreamVeraSans-Roman-35"/>
    </defs>
    <g transform="translate(458.290353094 577.092221197)scale(0.1 -0.1)">
     <use xlink:href="#BitstreamVeraSans-Roman-34"/>
     <use x="63.623046875" xlink:href="#BitstreamVeraSans-Roman-2e"/>
     <use x="95.41015625" xlink:href="#BitstreamVeraSans-Roman-35"/>
     <use x="159.033203125" xlink:href="#BitstreamVeraSans-Roman-25"/>
    </g>
   </g>
   <g id="text_7">
    <!-- V -->
    <defs>
     <path d="M 28.609375 0 
L 0.78125 72.90625 
L 11.078125 72.90625 
L 34.1875 11.53125 
L 57.328125 72.90625 
L 67.578125 72.90625 
L 39.796875 0 
z
" id="BitstreamVeraSans-Roman-56"/>
    </defs>
    <g transform="translate(394.411738274 530.501891554)scale(0.1 -0.1)">
     <use xlink:href="#BitstreamVeraSans-Roman-56"/>
    </g>
   </g>
   <g id="text_8">
    <!-- 4.5% -->
    <g transform="translate(391.238796377 596.780335262)scale(0.1 -0.1)">
     <use xlink:href="#BitstreamVeraSans-Roman-34"/>
     <use x="63.623046875" xlink:href="#BitstreamVeraSans-Roman-2e"/>
     <use x="95.41015625" xlink:href="#BitstreamVeraSans-Roman-35"/>
     <use x="159.033203125" xlink:href="#BitstreamVeraSans-Roman-25"/>
    </g>
   </g>
   <g id="text_9">
    <!-- J -->
    <defs>
     <path d="M 9.8125 72.90625 
L 19.671875 72.90625 
L 19.671875 5.078125 
Q 19.671875 -8.109375 14.671875 -14.0625 
Q 9.671875 -20.015625 -1.421875 -20.015625 
L -5.171875 -20.015625 
L -5.171875 -11.71875 
L -2.09375 -11.71875 
Q 4.4375 -11.71875 7.125 -8.046875 
Q 9.8125 -4.390625 9.8125 5.078125 
z
" id="BitstreamVeraSans-Roman-4a"/>
    </defs>
    <g transform="translate(315.743833192 525.08643994)scale(0.1 -0.1)">
     <use xlink:href="#BitstreamVeraSans-Roman-4a"/>
    </g>
   </g>
   <g id="text_10">
    <!-- 9.1% -->
    <g transform="translate(287.126676889 589.334089293)scale(0.1 -0.1)">
     <use xlink:href="#BitstreamVeraSans-Roman-39"/>
     <use x="63.623046875" xlink:href="#BitstreamVeraSans-Roman-2e"/>
     <use x="95.41015625" xlink:href="#BitstreamVeraSans-Roman-31"/>
     <use x="159.033203125" xlink:href="#BitstreamVeraSans-Roman-25"/>
    </g>
   </g>
   <g id="text_11">
    <!-- K -->
    <defs>
     <path d="M 9.8125 72.90625 
L 19.671875 72.90625 
L 19.671875 42.09375 
L 52.390625 72.90625 
L 65.09375 72.90625 
L 28.90625 38.921875 
L 67.671875 0 
L 54.6875 0 
L 19.671875 35.109375 
L 19.671875 0 
L 9.8125 0 
z
" id="BitstreamVeraSans-Roman-4b"/>
    </defs>
    <g transform="translate(227.495540517 470.691304207)scale(0.1 -0.1)">
     <use xlink:href="#BitstreamVeraSans-Roman-4b"/>
    </g>
   </g>
   <g id="text_12">
    <!-- 9.1% -->
    <g transform="translate(170.746016649 514.54077766)scale(0.1 -0.1)">
     <use xlink:href="#BitstreamVeraSans-Roman-39"/>
     <use x="63.623046875" xlink:href="#BitstreamVeraSans-Roman-2e"/>
     <use x="95.41015625" xlink:href="#BitstreamVeraSans-Roman-31"/>
     <use x="159.033203125" xlink:href="#BitstreamVeraSans-Roman-25"/>
    </g>
   </g>
   <g id="text_13">
    <!-- L -->
    <defs>
     <path d="M 9.8125 72.90625 
L 19.671875 72.90625 
L 19.671875 8.296875 
L 55.171875 8.296875 
L 55.171875 0 
L 9.8125 0 
z
" id="BitstreamVeraSans-Roman-4c"/>
    </defs>
    <g transform="translate(192.101057705 404.065533787)scale(0.1 -0.1)">
     <use xlink:href="#BitstreamVeraSans-Roman-4c"/>
    </g>
   </g>
   <g id="text_14">
    <!-- 4.5% -->
    <g transform="translate(120.722938719 422.930343333)scale(0.1 -0.1)">
     <use xlink:href="#BitstreamVeraSans-Roman-34"/>
     <use x="63.623046875" xlink:href="#BitstreamVeraSans-Roman-2e"/>
     <use x="95.41015625" xlink:href="#BitstreamVeraSans-Roman-35"/>
     <use x="159.033203125" xlink:href="#BitstreamVeraSans-Roman-25"/>
    </g>
   </g>
   <g id="text_15">
    <!-- C -->
    <defs>
     <path d="M 64.40625 67.28125 
L 64.40625 56.890625 
Q 59.421875 61.53125 53.78125 63.8125 
Q 48.140625 66.109375 41.796875 66.109375 
Q 29.296875 66.109375 22.65625 58.46875 
Q 16.015625 50.828125 16.015625 36.375 
Q 16.015625 21.96875 22.65625 14.328125 
Q 29.296875 6.6875 41.796875 6.6875 
Q 48.140625 6.6875 53.78125 8.984375 
Q 59.421875 11.28125 64.40625 15.921875 
L 64.40625 5.609375 
Q 59.234375 2.09375 53.4375 0.328125 
Q 47.65625 -1.421875 41.21875 -1.421875 
Q 24.65625 -1.421875 15.125 8.703125 
Q 5.609375 18.84375 5.609375 36.375 
Q 5.609375 53.953125 15.125 64.078125 
Q 24.65625 74.21875 41.21875 74.21875 
Q 47.75 74.21875 53.53125 72.484375 
Q 59.328125 70.75 64.40625 67.28125 
" id="BitstreamVeraSans-Roman-43"/>
    </defs>
    <g transform="translate(183.4571875 353.759366641)scale(0.1 -0.1)">
     <use xlink:href="#BitstreamVeraSans-Roman-43"/>
    </g>
   </g>
   <g id="text_16">
    <!-- 4.5% -->
    <g transform="translate(110.77765625 353.759363506)scale(0.1 -0.1)">
     <use xlink:href="#BitstreamVeraSans-Roman-34"/>
     <use x="63.623046875" xlink:href="#BitstreamVeraSans-Roman-2e"/>
     <use x="95.41015625" xlink:href="#BitstreamVeraSans-Roman-35"/>
     <use x="159.033203125" xlink:href="#BitstreamVeraSans-Roman-25"/>
    </g>
   </g>
   <g id="text_17">
    <!-- E -->
    <defs>
     <path d="M 9.8125 72.90625 
L 55.90625 72.90625 
L 55.90625 64.59375 
L 19.671875 64.59375 
L 19.671875 43.015625 
L 54.390625 43.015625 
L 54.390625 34.71875 
L 19.671875 34.71875 
L 19.671875 8.296875 
L 56.78125 8.296875 
L 56.78125 0 
L 9.8125 0 
z
" id="BitstreamVeraSans-Roman-45"/>
    </defs>
    <g transform="translate(191.354187415 303.453200172)scale(0.1 -0.1)">
     <use xlink:href="#BitstreamVeraSans-Roman-45"/>
    </g>
   </g>
   <g id="text_18">
    <!-- 4.5% -->
    <g transform="translate(120.722945195 284.588384611)scale(0.1 -0.1)">
     <use xlink:href="#BitstreamVeraSans-Roman-34"/>
     <use x="63.623046875" xlink:href="#BitstreamVeraSans-Roman-2e"/>
     <use x="95.41015625" xlink:href="#BitstreamVeraSans-Roman-35"/>
     <use x="159.033203125" xlink:href="#BitstreamVeraSans-Roman-25"/>
    </g>
   </g>
   <g id="text_19">
    <!-- F -->
    <defs>
     <path d="M 9.8125 72.90625 
L 51.703125 72.90625 
L 51.703125 64.59375 
L 19.671875 64.59375 
L 19.671875 43.109375 
L 48.578125 43.109375 
L 48.578125 34.8125 
L 19.671875 34.8125 
L 19.671875 0 
L 9.8125 0 
z
" id="BitstreamVeraSans-Roman-46"/>
    </defs>
    <g transform="translate(213.03421284 257.222541046)scale(0.1 -0.1)">
     <use xlink:href="#BitstreamVeraSans-Roman-46"/>
    </g>
   </g>
   <g id="text_20">
    <!-- 4.5% -->
    <g transform="translate(149.753097343 221.021228313)scale(0.1 -0.1)">
     <use xlink:href="#BitstreamVeraSans-Roman-34"/>
     <use x="63.623046875" xlink:href="#BitstreamVeraSans-Roman-2e"/>
     <use x="95.41015625" xlink:href="#BitstreamVeraSans-Roman-35"/>
     <use x="159.033203125" xlink:href="#BitstreamVeraSans-Roman-25"/>
    </g>
   </g>
   <g id="text_21">
    <!-- G -->
    <defs>
     <path d="M 59.515625 10.40625 
L 59.515625 29.984375 
L 43.40625 29.984375 
L 43.40625 38.09375 
L 69.28125 38.09375 
L 69.28125 6.78125 
Q 63.578125 2.734375 56.6875 0.65625 
Q 49.8125 -1.421875 42 -1.421875 
Q 24.90625 -1.421875 15.25 8.5625 
Q 5.609375 18.5625 5.609375 36.375 
Q 5.609375 54.25 15.25 64.234375 
Q 24.90625 74.21875 42 74.21875 
Q 49.125 74.21875 55.546875 72.453125 
Q 61.96875 70.703125 67.390625 67.28125 
L 67.390625 56.78125 
Q 61.921875 61.421875 55.765625 63.765625 
Q 49.609375 66.109375 42.828125 66.109375 
Q 29.4375 66.109375 22.71875 58.640625 
Q 16.015625 51.171875 16.015625 36.375 
Q 16.015625 21.625 22.71875 14.15625 
Q 29.4375 6.6875 42.828125 6.6875 
Q 48.046875 6.6875 52.140625 7.59375 
Q 56.25 8.5 59.515625 10.40625 
" id="BitstreamVeraSans-Roman-47"/>
    </defs>
    <g transform="translate(234.990584517 227.498379285)scale(0.1 -0.1)">
     <use xlink:href="#BitstreamVeraSans-Roman-47"/>
    </g>
   </g>
   <g id="text_22">
    <!-- 2.3% -->
    <defs>
     <path d="M 19.1875 8.296875 
L 53.609375 8.296875 
L 53.609375 0 
L 7.328125 0 
L 7.328125 8.296875 
Q 12.9375 14.109375 22.625 23.890625 
Q 32.328125 33.6875 34.8125 36.53125 
Q 39.546875 41.84375 41.421875 45.53125 
Q 43.3125 49.21875 43.3125 52.78125 
Q 43.3125 58.59375 39.234375 62.25 
Q 35.15625 65.921875 28.609375 65.921875 
Q 23.96875 65.921875 18.8125 64.3125 
Q 13.671875 62.703125 7.8125 59.421875 
L 7.8125 69.390625 
Q 13.765625 71.78125 18.9375 73 
Q 24.125 74.21875 28.421875 74.21875 
Q 39.75 74.21875 46.484375 68.546875 
Q 53.21875 62.890625 53.21875 53.421875 
Q 53.21875 48.921875 51.53125 44.890625 
Q 49.859375 40.875 45.40625 35.40625 
Q 44.1875 33.984375 37.640625 27.21875 
Q 31.109375 20.453125 19.1875 8.296875 
" id="BitstreamVeraSans-Roman-32"/>
    </defs>
    <g transform="translate(182.688811524 180.150505892)scale(0.1 -0.1)">
     <use xlink:href="#BitstreamVeraSans-Roman-32"/>
     <use x="63.623046875" xlink:href="#BitstreamVeraSans-Roman-2e"/>
     <use x="95.41015625" xlink:href="#BitstreamVeraSans-Roman-33"/>
     <use x="159.033203125" xlink:href="#BitstreamVeraSans-Roman-25"/>
    </g>
   </g>
   <g id="text_23">
    <!-- H -->
    <defs>
     <path d="M 9.8125 72.90625 
L 19.671875 72.90625 
L 19.671875 43.015625 
L 55.515625 43.015625 
L 55.515625 72.90625 
L 65.375 72.90625 
L 65.375 0 
L 55.515625 0 
L 55.515625 34.71875 
L 19.671875 34.71875 
L 19.671875 0 
L 9.8125 0 
z
" id="BitstreamVeraSans-Roman-48"/>
    </defs>
    <g transform="translate(254.472678014 210.814723051)scale(0.1 -0.1)">
     <use xlink:href="#BitstreamVeraSans-Roman-48"/>
    </g>
   </g>
   <g id="text_24">
    <!-- 2.3% -->
    <g transform="translate(209.163018206 157.21047857)scale(0.1 -0.1)">
     <use xlink:href="#BitstreamVeraSans-Roman-32"/>
     <use x="63.623046875" xlink:href="#BitstreamVeraSans-Roman-2e"/>
     <use x="95.41015625" xlink:href="#BitstreamVeraSans-Roman-33"/>
     <use x="159.033203125" xlink:href="#BitstreamVeraSans-Roman-25"/>
    </g>
   </g>
   <g id="text_25">
    <!-- I -->
    <defs>
     <path d="M 9.8125 72.90625 
L 19.671875 72.90625 
L 19.671875 0 
L 9.8125 0 
z
" id="BitstreamVeraSans-Roman-49"/>
    </defs>
    <g transform="translate(303.649689975 186.457626926)scale(0.1 -0.1)">
     <use xlink:href="#BitstreamVeraSans-Roman-49"/>
    </g>
   </g>
   <g id="text_26">
    <!-- 6.8% -->
    <defs>
     <path d="M 33.015625 40.375 
Q 26.375 40.375 22.484375 35.828125 
Q 18.609375 31.296875 18.609375 23.390625 
Q 18.609375 15.53125 22.484375 10.953125 
Q 26.375 6.390625 33.015625 6.390625 
Q 39.65625 6.390625 43.53125 10.953125 
Q 47.40625 15.53125 47.40625 23.390625 
Q 47.40625 31.296875 43.53125 35.828125 
Q 39.65625 40.375 33.015625 40.375 
M 52.59375 71.296875 
L 52.59375 62.3125 
Q 48.875 64.0625 45.09375 64.984375 
Q 41.3125 65.921875 37.59375 65.921875 
Q 27.828125 65.921875 22.671875 59.328125 
Q 17.53125 52.734375 16.796875 39.40625 
Q 19.671875 43.65625 24.015625 45.921875 
Q 28.375 48.1875 33.59375 48.1875 
Q 44.578125 48.1875 50.953125 41.515625 
Q 57.328125 34.859375 57.328125 23.390625 
Q 57.328125 12.15625 50.6875 5.359375 
Q 44.046875 -1.421875 33.015625 -1.421875 
Q 20.359375 -1.421875 13.671875 8.265625 
Q 6.984375 17.96875 6.984375 36.375 
Q 6.984375 53.65625 15.1875 63.9375 
Q 23.390625 74.21875 37.203125 74.21875 
Q 40.921875 74.21875 44.703125 73.484375 
Q 48.484375 72.75 52.59375 71.296875 
" id="BitstreamVeraSans-Roman-36"/>
    </defs>
    <g transform="translate(270.497229965 123.719471398)scale(0.1 -0.1)">
     <use xlink:href="#BitstreamVeraSans-Roman-36"/>
     <use x="63.623046875" xlink:href="#BitstreamVeraSans-Roman-2e"/>
     <use x="95.41015625" xlink:href="#BitstreamVeraSans-Roman-38"/>
     <use x="159.033203125" xlink:href="#BitstreamVeraSans-Roman-25"/>
    </g>
   </g>
   <g id="text_27">
    <!-- P -->
    <defs>
     <path d="M 19.671875 64.796875 
L 19.671875 37.40625 
L 32.078125 37.40625 
Q 38.96875 37.40625 42.71875 40.96875 
Q 46.484375 44.53125 46.484375 51.125 
Q 46.484375 57.671875 42.71875 61.234375 
Q 38.96875 64.796875 32.078125 64.796875 
z
M 9.8125 72.90625 
L 32.078125 72.90625 
Q 44.34375 72.90625 50.609375 67.359375 
Q 56.890625 61.8125 56.890625 51.125 
Q 56.890625 40.328125 50.609375 34.8125 
Q 44.34375 29.296875 32.078125 29.296875 
L 19.671875 29.296875 
L 19.671875 0 
L 9.8125 0 
z
" id="BitstreamVeraSans-Roman-50"/>
    </defs>
    <g transform="translate(350.232004244 175.65432425)scale(0.1 -0.1)">
     <use xlink:href="#BitstreamVeraSans-Roman-50"/>
    </g>
   </g>
   <g id="text_28">
    <!-- 2.3% -->
    <g transform="translate(338.782482398 108.864930218)scale(0.1 -0.1)">
     <use xlink:href="#BitstreamVeraSans-Roman-32"/>
     <use x="63.623046875" xlink:href="#BitstreamVeraSans-Roman-2e"/>
     <use x="95.41015625" xlink:href="#BitstreamVeraSans-Roman-33"/>
     <use x="159.033203125" xlink:href="#BitstreamVeraSans-Roman-25"/>
    </g>
   </g>
  </g>
 </g>
</svg>
